<svg width="24" height="24" viewBox="0 0 24 24" fill="none" xmlns="http://www.w3.org/2000/svg">
<path fill-rule="evenodd" clip-rule="evenodd" d="M21.4176 8.55891H2.62176V9.80691H21.4176V8.55891ZM1.81488 14.8191H22.1856L24 12.6706V6.25395L22.1851 4.10547H1.81488L0 6.25395V12.6706L1.81488 14.8191ZM1.36992 12.1695H22.6306L21.5496 13.4491H2.4504L1.36992 12.1695ZM22.6301 10.9215H1.36992V6.75555L2.45088 5.47587H21.5501L22.631 6.75555V10.9215H22.6301ZM18.515 15.7363C18.515 16.8711 18.3514 17.1773 18.1858 17.4883C17.9491 17.9319 17.7086 18.3826 17.7086 19.8941H18.779C18.779 18.6408 18.9542 18.313 19.1266 17.9899C19.3574 17.5565 19.5854 17.1293 19.5854 15.7363H18.515ZM15.611 17.9899C15.8419 17.5565 16.0704 17.1293 16.0704 15.7363H15C15 16.8711 14.8363 17.1773 14.6707 17.4883C14.4341 17.9319 14.1936 18.3826 14.1936 19.8941H15.264C15.2635 18.6408 15.4387 18.313 15.611 17.9899ZM12.0955 17.9899C12.3269 17.5565 12.5549 17.1293 12.5549 15.7363H11.484C11.484 16.8711 11.3203 17.1773 11.1547 17.4883C10.9181 17.9319 10.6776 18.3831 10.6776 19.8941H11.748C11.748 18.6413 11.9232 18.313 12.0955 17.9899ZM8.58 17.9899C8.81088 17.5565 9.03888 17.1293 9.03888 15.7363H7.968C7.968 16.8711 7.80384 17.1773 7.63824 17.4883C7.4016 17.9319 7.16112 18.3831 7.16112 19.8941H8.23152C8.232 18.6413 8.4072 18.313 8.58 17.9899ZM5.064 17.9899C5.29488 17.5565 5.52288 17.1293 5.52288 15.7363H4.45248C4.45248 16.8711 4.2888 17.1773 4.1232 17.4883C3.88608 17.9319 3.64608 18.3831 3.64608 19.8941H4.71648C4.716 18.6413 4.89168 18.313 5.064 17.9899ZM2.62176 7.64115H21.4176V6.39315H2.62176V7.64115Z" fill="#444444"/>
</svg>
