<svg width="24" height="24" viewBox="0 0 24 24" fill="none" xmlns="http://www.w3.org/2000/svg">
<g clip-path="url(#clip0)">
<path fill-rule="evenodd" clip-rule="evenodd" d="M12 22.63C17.8708 22.63 22.63 17.8708 22.63 12C22.63 6.12921 17.8708 1.37 12 1.37C6.12921 1.37 1.37 6.12921 1.37 12C1.37 17.8708 6.12921 22.63 12 22.63ZM12 24C18.6274 24 24 18.6274 24 12C24 5.37258 18.6274 0 12 0C5.37258 0 0 5.37258 0 12C0 18.6274 5.37258 24 12 24Z" fill="#FF4747"/>
<path d="M16.1638 9.07708L16.2411 8.92845V8.76091V5.52763H17.5234V8.76161V8.92924L17.6009 9.07793L19.315 12.3706V23.315H14.4503V12.3705L16.1638 9.07708ZM7.66679 0.735117V1.42012H8.35179H8.38133V2.09843C8.38133 2.44665 8.37956 2.79229 8.37781 3.13593C8.36164 6.29964 8.34635 9.2934 9.71796 12.5715L9.71801 12.5716L9.73018 12.6007L9.73018 12.6007C9.91132 13.0333 10.0824 13.4426 10.2386 13.9105L10.2389 13.9114C10.6251 15.0627 10.8077 16.1766 10.8077 17.3924V23.3129H3.685V17.3924C3.685 16.1762 3.86822 15.0636 4.25388 13.9111C4.41237 13.4391 4.58471 13.0262 4.76726 12.5894L4.13525 12.3252L4.76726 12.5894L4.77472 12.5716C4.77477 12.5715 4.77482 12.5713 4.77486 12.5712C6.14705 9.29314 6.13176 6.2999 6.1156 3.13576C6.11385 2.79219 6.11209 2.44661 6.11209 2.09843V1.42012H6.71227V0.735117V0.685H7.66679V0.735117Z" stroke="#444444" stroke-width="1.37"/>
<path d="M24.2824 23.3141L24.5651 23.0313L24.2824 22.7485L1.28284 -0.251003L1.00454 -0.529307L0.721769 -0.255541L-0.278231 0.712619L-0.570497 0.99558L-0.28265 1.28304L22.7487 24.283L23.0316 24.5656L23.3143 24.2828L24.2824 23.3141Z" fill="#FF4747" stroke="white" stroke-width="0.8"/>
</g>
<defs>
<clipPath id="clip0">
<rect width="24" height="24" fill="white"/>
</clipPath>
</defs>
</svg>
