<svg width="40" height="52" viewBox="0 0 40 52" fill="none" xmlns="http://www.w3.org/2000/svg">
<path d="M14.5783 33.4279L6.65886 50.3602L3.44691 48.8577L11.3652 31.9249L14.5783 33.4279Z" fill="black"/>
<path d="M14.5783 33.4279L6.65886 50.3602L2.85516 50.3602L11.3652 31.9249L14.5783 33.4279Z" fill="black"/>
<path d="M24.7303 33.4279L32.6497 50.3602L36.5539 50.3602L27.9434 31.9249L24.7303 33.4279Z" fill="black"/>
<path d="M21 32.0004L20.999 51L18 50.9996V32L21 32.0004Z" fill="black"/>
<path d="M40 20C40 22.6264 39.4827 25.2272 38.4776 27.6537C37.4725 30.0802 35.9993 32.285 34.1421 34.1421C32.285 35.9993 30.0802 37.4725 27.6537 38.4776C25.2272 39.4827 22.6264 40 20 40C17.3736 40 14.7728 39.4827 12.3463 38.4776C9.91982 37.4725 7.71504 35.9993 5.85786 34.1421C4.00069 32.285 2.5275 30.0802 1.52241 27.6537C0.517315 25.2272 -2.2961e-07 22.6264 0 20L20 20H40Z" fill="white"/>
<path fill-rule="evenodd" clip-rule="evenodd" d="M35.3255 26.348C35.7194 25.3972 36.0229 24.4141 36.2336 23.4118L3.76641 23.4118C3.97707 24.4141 4.28062 25.3972 4.67447 26.348C5.50811 28.3606 6.72999 30.1893 8.27035 31.7297C9.81071 33.27 11.6394 34.4919 13.652 35.3255C15.6645 36.1592 17.8216 36.5882 20 36.5882C22.1784 36.5882 24.3355 36.1592 26.348 35.3255C28.3606 34.4919 30.1893 33.27 31.7297 31.7297C33.27 30.1893 34.4919 28.3606 35.3255 26.348ZM0.293151 23.4118C0.0985356 22.2876 0 21.1463 0 20L40 20C40 21.1463 39.9015 22.2876 39.7068 23.4118C39.4555 24.8633 39.044 26.2862 38.4776 27.6537C37.4725 30.0802 35.9993 32.285 34.1421 34.1421C32.285 35.9993 30.0802 37.4725 27.6537 38.4776C25.2272 39.4827 22.6264 40 20 40C17.3736 40 14.7728 39.4827 12.3463 38.4776C9.91982 37.4725 7.71504 35.9993 5.85786 34.1421C4.00069 32.285 2.5275 30.0802 1.52241 27.6537C0.955973 26.2862 0.544458 24.8633 0.293151 23.4118Z" fill="black"/>
<path d="M19.0754 7.87739L19.0756 7.87701L19.0776 7.87315C19.819 6.45747 20.5516 5.05868 20.5516 0H23.8812C23.8812 5.87988 22.9485 7.65894 22.0026 9.46307L22.0018 9.46458C21.2316 10.9329 20.4496 12.425 20.4496 17.9988H17.1188C17.1188 11.6084 18.1047 9.72844 19.0754 7.87739Z" fill="black"/>
<path d="M29.1904 7.88234L29.1932 7.87701L29.1943 7.875C29.9372 6.45869 30.6704 5.06089 30.6704 0H34C34 5.88152 33.0668 7.65993 32.1195 9.46458L32.1173 9.46885C31.3489 10.937 30.5673 12.4304 30.5673 17.9988H27.2365C27.2365 11.6129 28.2218 9.73179 29.1904 7.88234Z" fill="black"/>
<path d="M10.3307 18H7C7 11.608 7.98598 9.72818 8.95671 7.87821L8.95925 7.87335C9.7005 6.45682 10.4327 5.05751 10.4327 0.00119268H13.7635C13.7635 5.88107 12.8308 7.66013 11.8849 9.46426L11.8842 9.46577L11.8838 9.46635C11.1137 10.9345 10.3307 12.4269 10.3307 18Z" fill="black"/>
</svg>
