<svg width="24" height="24" viewBox="0 0 24 24" fill="none" xmlns="http://www.w3.org/2000/svg">
<path fill-rule="evenodd" clip-rule="evenodd" d="M6.00336 6.98474V10.9073H3.57744V4.86842C9.43584 3.03386 14.5757 3.10154 20.4394 4.87322V10.9078H18.0134V6.97754C13.6469 5.54762 10.3637 5.49482 6.00336 6.98474ZM16.6498 10.9073H7.36704V7.9793C10.6766 6.99194 13.3392 7.0265 16.6498 7.98314V10.9073ZM1.60368 20.0993H22.3963L22.6363 21.8475H24V10.9073H21.803V3.8729C14.941 1.62026 9.06528 1.53386 2.21376 3.88058V10.9073H0V21.8475H1.36368L1.60368 20.0993ZM1.36368 17.4142H22.6368V18.7361H1.36368V17.4142ZM1.36368 12.271H22.6368V16.05H1.36368V12.271Z" fill="#444444"/>
</svg>
