<svg width="61" height="55" viewBox="0 0 61 55" fill="none" xmlns="http://www.w3.org/2000/svg">
<path d="M30 30C29.7348 30 29.4804 30.1054 29.2929 30.2929C29.1054 30.4804 29 30.7348 29 31C29 31.2652 29.1054 31.5196 29.2929 31.7071C29.4804 31.8946 29.7348 32 30 32C30.2652 32 30.5196 32.1054 30.7071 32.2929C30.8946 32.4804 31 32.7348 31 33C31 33.2652 31.1054 33.5196 31.2929 33.7071C31.4804 33.8946 31.7348 34 32 34C32.2652 34 32.5196 33.8946 32.7071 33.7071C32.8946 33.5196 33 33.2652 33 33C33 32.2044 32.6839 31.4413 32.1213 30.8787C31.5587 30.3161 30.7956 30 30 30Z" fill="black"/>
<path d="M40 30C39.7348 30 39.4804 30.1054 39.2929 30.2929C39.1054 30.4804 39 30.7348 39 31C39 31.2652 39.1054 31.5196 39.2929 31.7071C39.4804 31.8946 39.7348 32 40 32C40.2652 32 40.5196 32.1054 40.7071 32.2929C40.8946 32.4804 41 32.7348 41 33C41 33.2652 41.1054 33.5196 41.2929 33.7071C41.4804 33.8946 41.7348 34 42 34C42.2652 34 42.5196 33.8946 42.7071 33.7071C42.8946 33.5196 43 33.2652 43 33C43 32.2044 42.6839 31.4413 42.1213 30.8787C41.5587 30.3161 40.7956 30 40 30Z" fill="black"/>
<path d="M34 21C34 21.2652 34.1054 21.5196 34.2929 21.7071C34.4804 21.8946 34.7348 22 35 22C35.2652 22 35.5196 22.1054 35.7071 22.2929C35.8946 22.4804 36 22.7348 36 23C36 23.2652 36.1054 23.5196 36.2929 23.7071C36.4804 23.8946 36.7348 24 37 24C37.2652 24 37.5196 23.8946 37.7071 23.7071C37.8946 23.5196 38 23.2652 38 23C38 22.2044 37.6839 21.4413 37.1213 20.8787C36.5587 20.3161 35.7956 20 35 20C34.7348 20 34.4804 20.1054 34.2929 20.2929C34.1054 20.4804 34 20.7348 34 21Z" fill="black"/>
<path d="M30 12C30.2652 12 30.5196 12.1054 30.7071 12.2929C30.8946 12.4804 31 12.7348 31 13C31 13.2652 31.1054 13.5196 31.2929 13.7071C31.4804 13.8946 31.7348 14 32 14C32.2652 14 32.5196 13.8946 32.7071 13.7071C32.8946 13.5196 33 13.2652 33 13C33 12.2044 32.6839 11.4413 32.1213 10.8787C31.5587 10.3161 30.7956 10 30 10C29.7348 10 29.4804 10.1054 29.2929 10.2929C29.1054 10.4804 29 10.7348 29 11C29 11.2652 29.1054 11.5196 29.2929 11.7071C29.4804 11.8946 29.7348 12 30 12Z" fill="black"/>
<path d="M25 22C25.2652 22 25.5196 22.1054 25.7071 22.2929C25.8946 22.4804 26 22.7348 26 23C26 23.2652 26.1054 23.5196 26.2929 23.7071C26.4804 23.8946 26.7348 24 27 24C27.2652 24 27.5196 23.8946 27.7071 23.7071C27.8946 23.5196 28 23.2652 28 23C28 22.2044 27.6839 21.4413 27.1213 20.8787C26.5587 20.3161 25.7956 20 25 20C24.7348 20 24.4804 20.1054 24.2929 20.2929C24.1054 20.4804 24 20.7348 24 21C24 21.2652 24.1054 21.5196 24.2929 21.7071C24.4804 21.8946 24.7348 22 25 22Z" fill="black"/>
<path d="M20 30C19.7348 30 19.4804 30.1054 19.2929 30.2929C19.1054 30.4804 19 30.7348 19 31C19 31.2652 19.1054 31.5196 19.2929 31.7071C19.4804 31.8946 19.7348 32 20 32C20.2652 32 20.5196 32.1054 20.7071 32.2929C20.8946 32.4804 21 32.7348 21 33C21 33.2652 21.1054 33.5196 21.2929 33.7071C21.4804 33.8946 21.7348 34 22 34C22.2652 34 22.5196 33.8946 22.7071 33.7071C22.8946 33.5196 23 33.2652 23 33C23 32.2044 22.6839 31.4413 22.1213 30.8787C21.5587 30.3161 20.7956 30 20 30Z" fill="black"/>
<path d="M49.6129 36.118L30.8849 0.534C30.8008 0.374319 30.6751 0.24037 30.5211 0.146357C30.367 0.0523434 30.1904 0.00177042 30.0099 0H29.9999C29.8213 1.21474e-05 29.6459 0.047879 29.492 0.138623C29.3382 0.229368 29.2114 0.359676 29.1249 0.516L8.12493 38.516C8.04073 38.6682 7.9977 38.8398 8.00009 39.0138C8.00249 39.1877 8.05023 39.358 8.13859 39.5079C8.22695 39.6578 8.35288 39.782 8.50394 39.8683C8.655 39.9546 8.82596 40 8.99993 40H43.5299C43.4669 40.093 43.3989 40.179 43.3399 40.275C42.2536 42.0248 41.7983 44.0935 42.0495 46.1377C42.3008 48.1819 43.2435 50.0787 44.7213 51.5133C46.1991 52.9479 48.123 53.834 50.1737 54.0246C52.2245 54.2152 54.2788 53.6988 55.9956 52.5611C57.7124 51.4234 58.9886 49.7328 59.6123 47.7699C60.2359 45.807 60.1696 43.6899 59.4244 41.7699C58.6791 39.8498 57.2996 38.2424 55.515 37.2144C53.7303 36.1863 51.6477 35.7995 49.6129 36.118V36.118ZM40.9249 23.905L42.9699 27.791C42.0663 27.2719 41.0421 26.9991 39.9999 27C39.8109 27 39.6229 27.01 39.4379 27.027C40.2329 26.1572 40.7506 25.0703 40.9249 23.905V23.905ZM38.9999 23C39.0013 23.5256 38.8985 24.0463 38.6973 24.5319C38.4961 25.0175 38.2006 25.4584 37.8279 25.829C37.0655 26.5553 36.0529 26.9604 34.9999 26.9604C33.9469 26.9604 32.9343 26.5553 32.1719 25.829C31.7067 25.3639 31.3634 24.7913 31.1723 24.1618C30.9813 23.5323 30.9484 22.8655 31.0767 22.2203C31.205 21.5751 31.4904 20.9715 31.9076 20.4629C32.3249 19.9544 32.8611 19.5566 33.4689 19.3048C34.0766 19.053 34.737 18.9549 35.3917 19.0194C36.0463 19.0838 36.675 19.3087 37.222 19.6741C37.769 20.0396 38.2174 20.5342 38.5275 21.1144C38.8376 21.6945 38.9999 22.3422 38.9999 23V23ZM35.5619 28.973C35.3561 29.1963 35.1673 29.4346 34.9969 29.686C34.8275 29.4345 34.6396 29.1958 34.4349 28.972C34.6209 28.99 34.8099 29 34.9999 29C35.1899 29 35.3769 28.99 35.5619 28.973ZM35.8619 14.28L37.6099 17.6C36.7966 17.2048 35.9042 16.9997 34.9999 17C34.8099 17 34.6209 17.01 34.4349 17.028C35.1423 16.2527 35.6334 15.305 35.8589 14.28H35.8619ZM29.9789 3.106L32.2629 7.446C31.5095 7.13656 30.7006 6.98514 29.8863 7.00114C29.072 7.01713 28.2696 7.2002 27.5289 7.539L29.9789 3.106ZM29.9999 9C30.7911 9 31.5644 9.2346 32.2222 9.67412C32.88 10.1136 33.3927 10.7384 33.6954 11.4693C33.9982 12.2002 34.0774 13.0044 33.9231 13.7804C33.7687 14.5563 33.3878 15.269 32.8284 15.8284C32.2689 16.3878 31.5562 16.7688 30.7803 16.9231C30.0044 17.0775 29.2001 16.9983 28.4692 16.6955C27.7383 16.3928 27.1136 15.8801 26.6741 15.2223C26.2345 14.5645 25.9999 13.7911 25.9999 13C25.9999 11.9391 26.4214 10.9217 27.1715 10.1716C27.9217 9.42143 28.9391 9 29.9999 9ZM29.9999 19.686C29.8304 19.4337 29.6418 19.1947 29.4359 18.971C29.6229 18.989 29.8119 19 30.0029 19C30.1939 19 30.3809 18.989 30.5659 18.971C30.3595 19.1947 30.1703 19.4337 29.9999 19.686ZM30.5659 27.029C30.3779 27.011 30.1899 27 29.9999 27C29.8099 27 29.6199 27.011 29.4329 27.029C29.6398 26.8054 29.8294 26.5664 29.9999 26.314C30.1693 26.5662 30.3575 26.8052 30.5629 27.029H30.5659ZM24.0659 13.813C24.2282 15.0123 24.7513 16.134 25.5659 17.029C25.3799 17.011 25.1909 17 24.9999 17C23.857 17.0003 22.7383 17.329 21.7769 17.947L24.0659 13.813ZM24.9999 19C25.7911 19 26.5644 19.2346 27.2222 19.6741C27.88 20.1136 28.3927 20.7384 28.6954 21.4693C28.9982 22.2002 29.0774 23.0044 28.9231 23.7804C28.7687 24.5563 28.3878 25.269 27.8284 25.8284C27.2689 26.3878 26.5562 26.7688 25.7803 26.9231C25.0044 27.0775 24.2001 26.9983 23.4692 26.6955C22.7383 26.3928 22.1136 25.8801 21.6741 25.2223C21.2345 24.5645 20.9999 23.7911 20.9999 23C20.9999 21.9391 21.4214 20.9217 22.1715 20.1716C22.9217 19.4214 23.9391 19 24.9999 19V19ZM25.5669 28.971C25.3598 29.1958 25.1702 29.4361 24.9999 29.69C24.8297 29.4361 24.6401 29.1958 24.4329 28.971C24.6199 28.989 24.8089 29 24.9999 29C25.1909 29 25.3799 28.989 25.5669 28.971V28.971ZM18.9999 22.97V23C19.0006 24.4916 19.5596 25.9289 20.5669 27.029C20.3799 27.011 20.1909 27 19.9999 27C18.4493 27.0002 16.9594 27.6029 15.8449 28.681L18.9999 22.97ZM10.6999 38L14.1259 31.8C13.886 32.9713 14.0019 34.1876 14.4588 35.2925C14.9157 36.3974 15.6928 37.3403 16.6899 38H10.6999ZM19.9999 37C19.2088 37 18.4354 36.7654 17.7777 36.3259C17.1199 35.8864 16.6072 35.2616 16.3044 34.5307C16.0017 33.7998 15.9224 32.9956 16.0768 32.2196C16.2311 31.4437 16.6121 30.731 17.1715 30.1716C17.7309 29.6122 18.4436 29.2312 19.2196 29.0769C19.9955 28.9225 20.7998 29.0017 21.5307 29.3045C22.2616 29.6072 22.8863 30.1199 23.3258 30.7777C23.7653 31.4355 23.9999 32.2089 23.9999 33C23.9999 34.0609 23.5785 35.0783 22.8284 35.8284C22.0782 36.5786 21.0608 37 19.9999 37ZM23.3099 38C23.9801 37.5548 24.5547 36.9802 24.9999 36.31C25.4452 36.9802 26.0197 37.5548 26.6899 38H23.3099ZM29.9999 37C29.2088 37 28.4354 36.7654 27.7777 36.3259C27.1199 35.8864 26.6072 35.2616 26.3044 34.5307C26.0017 33.7998 25.9224 32.9956 26.0768 32.2196C26.2311 31.4437 26.6121 30.731 27.1715 30.1716C27.7309 29.6122 28.4436 29.2312 29.2196 29.0769C29.9955 28.9225 30.7998 29.0017 31.5307 29.3045C32.2616 29.6072 32.8863 30.1199 33.3258 30.7777C33.7653 31.4355 33.9999 32.2089 33.9999 33C33.9999 34.0609 33.5785 35.0783 32.8284 35.8284C32.0782 36.5786 31.0608 37 29.9999 37V37ZM33.3099 38C33.9797 37.5559 34.5543 36.9827 34.9999 36.314C35.4435 36.9815 36.0148 37.5545 36.6809 38H33.3099ZM37.1719 35.829C36.6124 35.2696 36.2313 34.5569 36.0769 33.781C35.9224 33.005 36.0016 32.2007 36.3043 31.4697C36.607 30.7387 37.1197 30.1139 37.7775 29.6744C38.4353 29.2348 39.2088 29.0001 39.9999 29.0001C40.7911 29.0001 41.5645 29.2348 42.2223 29.6744C42.8802 30.1139 43.3928 30.7387 43.6956 31.4697C43.9983 32.2007 44.0774 33.005 43.923 33.781C43.7685 34.5569 43.3875 35.2696 42.8279 35.829C42.0655 36.5553 41.0529 36.9604 39.9999 36.9604C38.9469 36.9604 37.9343 36.5553 37.1719 35.829ZM43.3189 38C43.6507 37.7785 43.9598 37.525 44.2419 37.243C45.2473 36.2417 45.8622 34.9144 45.9759 33.5L47.6409 36.663C46.8181 36.9935 46.0487 37.444 45.3579 38H43.3189ZM57.8119 43.386C58.0772 44.5061 58.0621 45.6743 57.768 46.7871C57.474 47.9 56.9101 48.9232 56.1262 49.7661C55.3423 50.6089 54.3626 51.2455 53.274 51.6194C52.1854 51.9933 51.0213 52.0929 49.885 51.9095C48.7486 51.7261 47.675 51.2653 46.7593 50.568C45.8435 49.8706 45.1139 48.9581 44.635 47.9115C44.1561 46.8648 43.9426 45.7161 44.0136 44.5673C44.0846 43.4184 44.4378 42.3048 45.0419 41.325V41.325C45.7688 40.1467 46.8287 39.2104 48.0877 38.6345C49.3467 38.0586 50.7482 37.869 52.115 38.0896C53.4818 38.3102 54.7524 38.9311 55.7663 39.8739C56.7801 40.8166 57.4917 42.0389 57.8109 43.386H57.8119Z" fill="black"/>
<path d="M54.0484 42.22C53.9327 42.2822 53.8303 42.3666 53.7472 42.4684C53.6641 42.5702 53.6019 42.6873 53.5641 42.8132C53.5263 42.939 53.5137 43.0711 53.5269 43.2018C53.5402 43.3325 53.5791 43.4593 53.6414 43.575C53.8902 44.0391 54.013 44.5604 53.9975 45.0867C53.9821 45.6131 53.8289 46.1263 53.5534 46.575C53.1356 47.252 52.466 47.7354 51.6919 47.9188C50.9178 48.1022 50.1025 47.9706 49.4254 47.553C49.2099 47.4204 49.012 47.2611 48.8364 47.079C48.748 46.9746 48.6391 46.8895 48.5165 46.8288C48.3939 46.7682 48.2601 46.7334 48.1235 46.7265C47.9868 46.7196 47.8503 46.7408 47.7222 46.7889C47.5941 46.8369 47.4772 46.9107 47.3788 47.0057C47.2803 47.1007 47.2025 47.2149 47.1499 47.3412C47.0974 47.4675 47.0713 47.6033 47.0734 47.74C47.0754 47.8768 47.1054 48.0117 47.1617 48.1364C47.218 48.2611 47.2992 48.373 47.4004 48.465C48.2395 49.3314 49.3634 49.8654 50.5652 49.9684C51.7669 50.0714 52.9653 49.7366 53.9396 49.0256C54.9139 48.3146 55.5984 47.2754 55.8668 46.0995C56.1353 44.9236 55.9696 43.6904 55.4004 42.627C55.2748 42.3941 55.0619 42.2204 54.8085 42.1441C54.5551 42.0678 54.2817 42.0951 54.0484 42.22V42.22Z" fill="black"/>
<path d="M1 50H39C39.2652 50 39.5196 49.8946 39.7071 49.7071C39.8946 49.5196 40 49.2652 40 49V43C40 42.7348 39.8946 42.4804 39.7071 42.2929C39.5196 42.1054 39.2652 42 39 42H1C0.734784 42 0.48043 42.1054 0.292893 42.2929C0.105357 42.4804 0 42.7348 0 43V49C0 49.2652 0.105357 49.5196 0.292893 49.7071C0.48043 49.8946 0.734784 50 1 50ZM32 44H38V48H32V44ZM2 44H30V48H2V44Z" fill="black"/>
</svg>
