<svg width="43" height="43" viewBox="0 0 43 43" fill="none" xmlns="http://www.w3.org/2000/svg">
<path d="M7.58955 42.5015H1.51791C0.680024 42.5015 0 41.8215 0 40.9836V28.8403C0 28.0024 0.680024 27.3224 1.51791 27.3224H7.58955C8.42744 27.3224 9.10746 28.0024 9.10746 28.8403V40.9836C9.10746 41.8215 8.42744 42.5015 7.58955 42.5015ZM3.03582 39.4657H6.07164V30.3582H3.03582V39.4657Z" fill="black"/>
<path d="M27.3224 18.2149H1.51791C0.680024 18.2149 0 17.5349 0 16.697V1.51791C0 0.680024 0.680024 0 1.51791 0H31.8761C32.3558 0 32.8081 0.227687 33.0935 0.613236C33.3789 0.995749 33.4669 1.49666 33.3272 1.95507L28.7735 17.1342C28.5823 17.7747 27.9933 18.2149 27.3224 18.2149ZM3.03582 15.1791H26.1931L29.836 3.03582H3.03582V15.1791Z" fill="black"/>
<path d="M37.9474 15.179H28.2328C27.3949 15.179 26.7148 14.499 26.7148 13.6611C26.7148 12.8233 27.3918 12.1432 28.2328 12.1432H36.8545L38.8794 6.07159H30.965C30.1271 6.07159 29.4471 5.39156 29.4471 4.55368C29.4471 3.71579 30.1271 3.03577 30.965 3.03577H40.9832C41.472 3.03577 41.9304 3.26952 42.2127 3.66722C42.5011 4.06187 42.577 4.57189 42.4222 5.03637L39.3864 14.1438C39.1799 14.7601 38.6001 15.179 37.9474 15.179Z" fill="black"/>
<path d="M15.1788 36.4298H7.5892C6.75131 36.4298 6.07129 35.7498 6.07129 34.9119C6.07129 34.074 6.75131 33.394 7.5892 33.394H15.1788V16.697C15.1788 15.8591 15.8588 15.1791 16.6967 15.1791C17.5345 15.1791 18.2146 15.8591 18.2146 16.697V33.394C18.2146 35.0698 16.8515 36.4298 15.1788 36.4298Z" fill="black"/>
</svg>
