<svg width="52" height="62" viewBox="0 0 52 62" fill="none" xmlns="http://www.w3.org/2000/svg">
<path d="M22 49.6998H21.7V49.9998V51.9998V52.2998H22H24H24.3V51.9998V49.9998V49.6998H24H22Z" fill="black" stroke="black" stroke-width="0.6"/>
<path d="M24.3 49.9998V49.6998H24H22H21.7V49.9998V51.9998V52.2998H22H24H24.3V51.9998V49.9998Z" fill="black" stroke="black" stroke-width="0.6"/>
<path d="M28 49.6998H27.7V49.9998V51.9998V52.2998H28H30H30.3V51.9998V49.9998V49.6998H30H28Z" fill="black" stroke="black" stroke-width="0.6"/>
<path d="M30.3 49.9998V49.6998H30H28H27.7V49.9998V51.9998V52.2998H28H30H30.3V51.9998V49.9998Z" fill="black" stroke="black" stroke-width="0.6"/>
<path d="M22 54.6998H21.7V54.9998V56.9998V57.2998H22H24H24.3V56.9998V54.9998V54.6998H24H22Z" fill="black" stroke="black" stroke-width="0.6"/>
<path d="M24.3 54.9998V54.6998H24H22H21.7V54.9998V56.9998V57.2998H22H24H24.3V56.9998V54.9998Z" fill="black" stroke="black" stroke-width="0.6"/>
<path d="M28 54.6998H27.7V54.9998V56.9998V57.2998H28H30H30.3V56.9998V54.9998V54.6998H30H28Z" fill="black" stroke="black" stroke-width="0.6"/>
<path d="M30.3 54.9998V54.6998H30H28H27.7V54.9998V56.9998V57.2998H28H30H30.3V56.9998V54.9998Z" fill="black" stroke="black" stroke-width="0.6"/>
<mask id="path-9-outside-1" maskUnits="userSpaceOnUse" x="0" y="0" width="52" height="62" fill="black">
<rect fill="white" width="52" height="62"/>
<path fill-rule="evenodd" clip-rule="evenodd" d="M32.362 35.9588C34.5185 34.4349 36.0532 32.1846 36.6847 29.6206C37.3162 27.0566 37.0021 24.3509 35.8 21.9998H16.2C15.4086 23.5475 14.9972 25.2615 15 26.9998C15.0019 28.7556 15.4245 30.4853 16.2325 32.0441C17.0405 33.6029 18.2103 34.9453 19.644 35.9588C19.821 36.0848 20.001 36.2028 20.184 36.3178C20.271 36.3718 20.359 36.4258 20.448 36.4778C20.623 36.5858 20.799 36.6858 20.977 36.7778C21.0801 36.8316 21.1855 36.8807 21.2912 36.9299C21.3055 36.9365 21.3197 36.9432 21.334 36.9498C21.361 36.9627 21.388 36.9755 21.4149 36.9884C21.5498 37.0529 21.6847 37.1173 21.823 37.1748C22.098 37.2828 22.378 37.3918 22.664 37.4828C22.7406 37.5079 22.8187 37.5286 22.8969 37.5494C22.931 37.5584 22.965 37.5674 22.999 37.5768C23.209 37.6408 23.42 37.6938 23.634 37.7408C23.753 37.7678 23.873 37.7898 23.993 37.8118C24.217 37.8498 24.442 37.8838 24.67 37.9118C24.7006 37.9155 24.7312 37.9194 24.7617 37.9233C24.8382 37.933 24.9146 37.9427 24.991 37.9498C25.325 37.9798 25.661 38.0008 26.003 38.0008C26.345 38.0008 26.681 37.9798 27.015 37.9498C27.0914 37.9427 27.1678 37.933 27.2443 37.9233C27.2748 37.9194 27.3054 37.9155 27.336 37.9118C27.564 37.8878 27.789 37.8538 28.013 37.8118C28.133 37.7898 28.253 37.7678 28.372 37.7408C28.586 37.6938 28.797 37.6368 29.007 37.5768C29.041 37.5674 29.075 37.5584 29.1091 37.5494C29.1873 37.5286 29.2654 37.5079 29.342 37.4828C29.628 37.3918 29.908 37.2878 30.183 37.1748C30.3213 37.1173 30.4562 37.0529 30.5911 36.9884C30.618 36.9755 30.645 36.9627 30.672 36.9498C30.6863 36.9432 30.7005 36.9365 30.7148 36.9299C30.8205 36.8807 30.9259 36.8316 31.029 36.7778C31.207 36.6778 31.383 36.5778 31.558 36.4778C31.647 36.4258 31.735 36.3718 31.822 36.3178C32.005 36.2028 32.185 36.0848 32.362 35.9588ZM30 12.9998H32V19.9998H35V11.4598C35.0002 11.258 35.0614 11.061 35.1756 10.8947C35.2899 10.7284 35.4517 10.6005 35.64 10.5278C37.1 9.96482 38 8.99982 38 7.99982C38 6.37382 35.71 4.99982 33 4.99982C32.3184 4.9976 31.6397 5.08707 30.982 5.26582C30.7921 5.31788 30.5911 5.31272 30.4041 5.25099C30.2171 5.18926 30.0526 5.07371 29.931 4.91882C29.4647 4.32122 28.8683 3.8378 28.1872 3.5053C27.506 3.1728 26.758 2.99998 26 2.99998C25.242 2.99998 24.494 3.1728 23.8128 3.5053C23.1317 3.8378 22.5353 4.32122 22.069 4.91882C21.9474 5.07371 21.7829 5.18926 21.5959 5.25099C21.4089 5.31272 21.2079 5.31788 21.018 5.26582C20.3603 5.08707 19.6816 4.9976 19 4.99982C16.29 4.99982 14 6.37382 14 7.99982C14 8.99982 14.9 9.96482 16.36 10.5278C16.5483 10.6005 16.7101 10.7284 16.8244 10.8947C16.9386 11.061 16.9998 11.258 17 11.4598V19.9998H20V12.9998H22V19.9998H25V12.9998H27V19.9998H30V12.9998ZM40 7.99982C39.9374 8.89816 39.6227 9.76064 39.0921 10.4882C38.5614 11.2157 37.8363 11.7788 37 12.1128V20.0908C38.6825 22.7558 39.3365 25.9424 38.8396 29.0546C38.4421 31.5438 37.3301 33.849 35.6582 35.6998C35.2397 36.163 34.7862 36.5978 34.3 36.9998H35.833C35.9602 37 36.0873 37.0017 36.2142 37.005C40.0971 37.1068 43.7993 38.6937 46.5527 41.4471C49.3961 44.2905 50.9955 48.1457 51 52.1668V59.9998C51 60.265 50.8946 60.5194 50.7071 60.7069C50.5196 60.8945 50.2652 60.9998 50 60.9998H2C1.73478 60.9998 1.48043 60.8945 1.29289 60.7069C1.10536 60.5194 1 60.265 1 59.9998V52.1668C1.0045 48.1457 2.60389 44.2905 5.44728 41.4471C8.2007 38.6937 11.9029 37.1068 15.7858 37.005C15.9127 37.0017 16.0398 37 16.167 36.9998H17.7C17.2138 36.5978 16.7603 36.163 16.3418 35.6998C14.6699 33.849 13.5579 31.5438 13.1604 29.0546C12.6635 25.9424 13.3175 22.7558 15 20.0908V12.1128C14.1637 11.7788 13.4386 11.2157 12.9079 10.4882C12.3773 9.76064 12.0626 8.89816 12 7.99982C12 5.19982 15.075 2.99982 19 2.99982C19.6453 2.99892 20.2891 3.0619 20.922 3.18782C21.575 2.49685 22.3622 1.94642 23.2354 1.57022C24.1085 1.19403 25.0493 1 26 1C26.9507 1 27.8915 1.19403 28.7646 1.57022C29.6378 1.94642 30.425 2.49685 31.078 3.18782C31.7109 3.0619 32.3547 2.99892 33 2.99982C36.925 2.99982 40 5.19982 40 7.99982ZM18.964 42.9998C18.7051 42.9905 18.4599 42.881 18.2801 42.6945C18.1002 42.508 17.9998 42.2589 18 41.9998V38.9998H16.167C12.676 39.0035 9.32911 40.392 6.86062 42.8604C4.39213 45.3289 3.00371 48.6759 3 52.1668V58.9998H18V50.9998C18.0016 49.6742 18.5289 48.4034 19.4662 47.466C20.3457 46.5866 21.5188 46.0681 22.7553 46.0061C22.8366 46.002 22.9182 45.9999 23 45.9998H24.384C24.0866 45.5355 23.7306 45.1113 23.325 44.7378C23.3108 44.7251 23.2965 44.7124 23.2821 44.6998C22.0853 43.6477 20.5581 43.046 18.964 42.9998ZM26 47.9998H23C22.2044 47.9998 21.4413 48.3159 20.8787 48.8785C20.3161 49.4411 20 50.2042 20 50.9998V58.9998H49V52.1668C48.9963 48.6759 47.6079 45.3289 45.1394 42.8604C42.6709 40.392 39.324 39.0035 35.833 38.9998H34V41.9998C34.0002 42.2589 33.8998 42.508 33.7199 42.6945C33.5401 42.881 33.2949 42.9905 33.036 42.9998C31.4228 43.0465 29.8781 43.6622 28.675 44.7378C27.8971 45.4565 27.3016 46.3501 26.938 47.3448C26.8674 47.5368 26.7396 47.7026 26.5719 47.8197C26.4042 47.9368 26.2046 47.9997 26 47.9998ZM27.325 43.2618C28.6286 42.0824 30.2581 41.3242 32 41.0868V38.5248C31.9811 38.5349 31.9615 38.5427 31.9413 38.5508C31.9253 38.5573 31.9088 38.5639 31.892 38.5718C31.504 38.7695 31.1061 38.9474 30.7 39.1046C30.6903 39.1084 30.6807 39.1121 30.671 39.1158C30.595 39.1458 30.519 39.1728 30.442 39.1998C30.0016 39.3616 29.5526 39.4988 29.097 39.6108L29.072 39.6168C27.0531 40.1275 24.9389 40.1275 22.92 39.6168L22.895 39.6108C22.4394 39.4988 21.9904 39.3616 21.55 39.1998C21.473 39.1728 21.397 39.1458 21.321 39.1158C21.314 39.1131 21.307 39.1104 21.3 39.1077C20.8912 38.9495 20.4907 38.7706 20.1 38.5718C20.0835 38.5619 20.0653 38.5542 20.0465 38.5462C20.0311 38.5396 20.0153 38.5329 20 38.5248V41.0868C21.7419 41.3242 23.3714 42.0824 24.675 43.2618C24.843 43.4158 25.0046 43.5764 25.1593 43.7432C25.4675 44.0753 25.7487 44.4319 26 44.8098C26.2515 44.4321 26.5327 44.0754 26.8409 43.7432C26.9956 43.5765 27.1571 43.4158 27.325 43.2618Z"/>
</mask>
<path fill-rule="evenodd" clip-rule="evenodd" d="M32.362 35.9588C34.5185 34.4349 36.0532 32.1846 36.6847 29.6206C37.3162 27.0566 37.0021 24.3509 35.8 21.9998H16.2C15.4086 23.5475 14.9972 25.2615 15 26.9998C15.0019 28.7556 15.4245 30.4853 16.2325 32.0441C17.0405 33.6029 18.2103 34.9453 19.644 35.9588C19.821 36.0848 20.001 36.2028 20.184 36.3178C20.271 36.3718 20.359 36.4258 20.448 36.4778C20.623 36.5858 20.799 36.6858 20.977 36.7778C21.0801 36.8316 21.1855 36.8807 21.2912 36.9299C21.3055 36.9365 21.3197 36.9432 21.334 36.9498C21.361 36.9627 21.388 36.9755 21.4149 36.9884C21.5498 37.0529 21.6847 37.1173 21.823 37.1748C22.098 37.2828 22.378 37.3918 22.664 37.4828C22.7406 37.5079 22.8187 37.5286 22.8969 37.5494C22.931 37.5584 22.965 37.5674 22.999 37.5768C23.209 37.6408 23.42 37.6938 23.634 37.7408C23.753 37.7678 23.873 37.7898 23.993 37.8118C24.217 37.8498 24.442 37.8838 24.67 37.9118C24.7006 37.9155 24.7312 37.9194 24.7617 37.9233C24.8382 37.933 24.9146 37.9427 24.991 37.9498C25.325 37.9798 25.661 38.0008 26.003 38.0008C26.345 38.0008 26.681 37.9798 27.015 37.9498C27.0914 37.9427 27.1678 37.933 27.2443 37.9233C27.2748 37.9194 27.3054 37.9155 27.336 37.9118C27.564 37.8878 27.789 37.8538 28.013 37.8118C28.133 37.7898 28.253 37.7678 28.372 37.7408C28.586 37.6938 28.797 37.6368 29.007 37.5768C29.041 37.5674 29.075 37.5584 29.1091 37.5494C29.1873 37.5286 29.2654 37.5079 29.342 37.4828C29.628 37.3918 29.908 37.2878 30.183 37.1748C30.3213 37.1173 30.4562 37.0529 30.5911 36.9884C30.618 36.9755 30.645 36.9627 30.672 36.9498C30.6863 36.9432 30.7005 36.9365 30.7148 36.9299C30.8205 36.8807 30.9259 36.8316 31.029 36.7778C31.207 36.6778 31.383 36.5778 31.558 36.4778C31.647 36.4258 31.735 36.3718 31.822 36.3178C32.005 36.2028 32.185 36.0848 32.362 35.9588ZM30 12.9998H32V19.9998H35V11.4598C35.0002 11.258 35.0614 11.061 35.1756 10.8947C35.2899 10.7284 35.4517 10.6005 35.64 10.5278C37.1 9.96482 38 8.99982 38 7.99982C38 6.37382 35.71 4.99982 33 4.99982C32.3184 4.9976 31.6397 5.08707 30.982 5.26582C30.7921 5.31788 30.5911 5.31272 30.4041 5.25099C30.2171 5.18926 30.0526 5.07371 29.931 4.91882C29.4647 4.32122 28.8683 3.8378 28.1872 3.5053C27.506 3.1728 26.758 2.99998 26 2.99998C25.242 2.99998 24.494 3.1728 23.8128 3.5053C23.1317 3.8378 22.5353 4.32122 22.069 4.91882C21.9474 5.07371 21.7829 5.18926 21.5959 5.25099C21.4089 5.31272 21.2079 5.31788 21.018 5.26582C20.3603 5.08707 19.6816 4.9976 19 4.99982C16.29 4.99982 14 6.37382 14 7.99982C14 8.99982 14.9 9.96482 16.36 10.5278C16.5483 10.6005 16.7101 10.7284 16.8244 10.8947C16.9386 11.061 16.9998 11.258 17 11.4598V19.9998H20V12.9998H22V19.9998H25V12.9998H27V19.9998H30V12.9998ZM40 7.99982C39.9374 8.89816 39.6227 9.76064 39.0921 10.4882C38.5614 11.2157 37.8363 11.7788 37 12.1128V20.0908C38.6825 22.7558 39.3365 25.9424 38.8396 29.0546C38.4421 31.5438 37.3301 33.849 35.6582 35.6998C35.2397 36.163 34.7862 36.5978 34.3 36.9998H35.833C35.9602 37 36.0873 37.0017 36.2142 37.005C40.0971 37.1068 43.7993 38.6937 46.5527 41.4471C49.3961 44.2905 50.9955 48.1457 51 52.1668V59.9998C51 60.265 50.8946 60.5194 50.7071 60.7069C50.5196 60.8945 50.2652 60.9998 50 60.9998H2C1.73478 60.9998 1.48043 60.8945 1.29289 60.7069C1.10536 60.5194 1 60.265 1 59.9998V52.1668C1.0045 48.1457 2.60389 44.2905 5.44728 41.4471C8.2007 38.6937 11.9029 37.1068 15.7858 37.005C15.9127 37.0017 16.0398 37 16.167 36.9998H17.7C17.2138 36.5978 16.7603 36.163 16.3418 35.6998C14.6699 33.849 13.5579 31.5438 13.1604 29.0546C12.6635 25.9424 13.3175 22.7558 15 20.0908V12.1128C14.1637 11.7788 13.4386 11.2157 12.9079 10.4882C12.3773 9.76064 12.0626 8.89816 12 7.99982C12 5.19982 15.075 2.99982 19 2.99982C19.6453 2.99892 20.2891 3.0619 20.922 3.18782C21.575 2.49685 22.3622 1.94642 23.2354 1.57022C24.1085 1.19403 25.0493 1 26 1C26.9507 1 27.8915 1.19403 28.7646 1.57022C29.6378 1.94642 30.425 2.49685 31.078 3.18782C31.7109 3.0619 32.3547 2.99892 33 2.99982C36.925 2.99982 40 5.19982 40 7.99982ZM18.964 42.9998C18.7051 42.9905 18.4599 42.881 18.2801 42.6945C18.1002 42.508 17.9998 42.2589 18 41.9998V38.9998H16.167C12.676 39.0035 9.32911 40.392 6.86062 42.8604C4.39213 45.3289 3.00371 48.6759 3 52.1668V58.9998H18V50.9998C18.0016 49.6742 18.5289 48.4034 19.4662 47.466C20.3457 46.5866 21.5188 46.0681 22.7553 46.0061C22.8366 46.002 22.9182 45.9999 23 45.9998H24.384C24.0866 45.5355 23.7306 45.1113 23.325 44.7378C23.3108 44.7251 23.2965 44.7124 23.2821 44.6998C22.0853 43.6477 20.5581 43.046 18.964 42.9998ZM26 47.9998H23C22.2044 47.9998 21.4413 48.3159 20.8787 48.8785C20.3161 49.4411 20 50.2042 20 50.9998V58.9998H49V52.1668C48.9963 48.6759 47.6079 45.3289 45.1394 42.8604C42.6709 40.392 39.324 39.0035 35.833 38.9998H34V41.9998C34.0002 42.2589 33.8998 42.508 33.7199 42.6945C33.5401 42.881 33.2949 42.9905 33.036 42.9998C31.4228 43.0465 29.8781 43.6622 28.675 44.7378C27.8971 45.4565 27.3016 46.3501 26.938 47.3448C26.8674 47.5368 26.7396 47.7026 26.5719 47.8197C26.4042 47.9368 26.2046 47.9997 26 47.9998ZM27.325 43.2618C28.6286 42.0824 30.2581 41.3242 32 41.0868V38.5248C31.9811 38.5349 31.9615 38.5427 31.9413 38.5508C31.9253 38.5573 31.9088 38.5639 31.892 38.5718C31.504 38.7695 31.1061 38.9474 30.7 39.1046C30.6903 39.1084 30.6807 39.1121 30.671 39.1158C30.595 39.1458 30.519 39.1728 30.442 39.1998C30.0016 39.3616 29.5526 39.4988 29.097 39.6108L29.072 39.6168C27.0531 40.1275 24.9389 40.1275 22.92 39.6168L22.895 39.6108C22.4394 39.4988 21.9904 39.3616 21.55 39.1998C21.473 39.1728 21.397 39.1458 21.321 39.1158C21.314 39.1131 21.307 39.1104 21.3 39.1077C20.8912 38.9495 20.4907 38.7706 20.1 38.5718C20.0835 38.5619 20.0653 38.5542 20.0465 38.5462C20.0311 38.5396 20.0153 38.5329 20 38.5248V41.0868C21.7419 41.3242 23.3714 42.0824 24.675 43.2618C24.843 43.4158 25.0046 43.5764 25.1593 43.7432C25.4675 44.0753 25.7487 44.4319 26 44.8098C26.2515 44.4321 26.5327 44.0754 26.8409 43.7432C26.9956 43.5765 27.1571 43.4158 27.325 43.2618Z" fill="black"/>
<path fill-rule="evenodd" clip-rule="evenodd" d="M32.362 35.9588C34.5185 34.4349 36.0532 32.1846 36.6847 29.6206C37.3162 27.0566 37.0021 24.3509 35.8 21.9998H16.2C15.4086 23.5475 14.9972 25.2615 15 26.9998C15.0019 28.7556 15.4245 30.4853 16.2325 32.0441C17.0405 33.6029 18.2103 34.9453 19.644 35.9588C19.821 36.0848 20.001 36.2028 20.184 36.3178C20.271 36.3718 20.359 36.4258 20.448 36.4778C20.623 36.5858 20.799 36.6858 20.977 36.7778C21.0801 36.8316 21.1855 36.8807 21.2912 36.9299C21.3055 36.9365 21.3197 36.9432 21.334 36.9498C21.361 36.9627 21.388 36.9755 21.4149 36.9884C21.5498 37.0529 21.6847 37.1173 21.823 37.1748C22.098 37.2828 22.378 37.3918 22.664 37.4828C22.7406 37.5079 22.8187 37.5286 22.8969 37.5494C22.931 37.5584 22.965 37.5674 22.999 37.5768C23.209 37.6408 23.42 37.6938 23.634 37.7408C23.753 37.7678 23.873 37.7898 23.993 37.8118C24.217 37.8498 24.442 37.8838 24.67 37.9118C24.7006 37.9155 24.7312 37.9194 24.7617 37.9233C24.8382 37.933 24.9146 37.9427 24.991 37.9498C25.325 37.9798 25.661 38.0008 26.003 38.0008C26.345 38.0008 26.681 37.9798 27.015 37.9498C27.0914 37.9427 27.1678 37.933 27.2443 37.9233C27.2748 37.9194 27.3054 37.9155 27.336 37.9118C27.564 37.8878 27.789 37.8538 28.013 37.8118C28.133 37.7898 28.253 37.7678 28.372 37.7408C28.586 37.6938 28.797 37.6368 29.007 37.5768C29.041 37.5674 29.075 37.5584 29.1091 37.5494C29.1873 37.5286 29.2654 37.5079 29.342 37.4828C29.628 37.3918 29.908 37.2878 30.183 37.1748C30.3213 37.1173 30.4562 37.0529 30.5911 36.9884C30.618 36.9755 30.645 36.9627 30.672 36.9498C30.6863 36.9432 30.7005 36.9365 30.7148 36.9299C30.8205 36.8807 30.9259 36.8316 31.029 36.7778C31.207 36.6778 31.383 36.5778 31.558 36.4778C31.647 36.4258 31.735 36.3718 31.822 36.3178C32.005 36.2028 32.185 36.0848 32.362 35.9588ZM30 12.9998H32V19.9998H35V11.4598C35.0002 11.258 35.0614 11.061 35.1756 10.8947C35.2899 10.7284 35.4517 10.6005 35.64 10.5278C37.1 9.96482 38 8.99982 38 7.99982C38 6.37382 35.71 4.99982 33 4.99982C32.3184 4.9976 31.6397 5.08707 30.982 5.26582C30.7921 5.31788 30.5911 5.31272 30.4041 5.25099C30.2171 5.18926 30.0526 5.07371 29.931 4.91882C29.4647 4.32122 28.8683 3.8378 28.1872 3.5053C27.506 3.1728 26.758 2.99998 26 2.99998C25.242 2.99998 24.494 3.1728 23.8128 3.5053C23.1317 3.8378 22.5353 4.32122 22.069 4.91882C21.9474 5.07371 21.7829 5.18926 21.5959 5.25099C21.4089 5.31272 21.2079 5.31788 21.018 5.26582C20.3603 5.08707 19.6816 4.9976 19 4.99982C16.29 4.99982 14 6.37382 14 7.99982C14 8.99982 14.9 9.96482 16.36 10.5278C16.5483 10.6005 16.7101 10.7284 16.8244 10.8947C16.9386 11.061 16.9998 11.258 17 11.4598V19.9998H20V12.9998H22V19.9998H25V12.9998H27V19.9998H30V12.9998ZM40 7.99982C39.9374 8.89816 39.6227 9.76064 39.0921 10.4882C38.5614 11.2157 37.8363 11.7788 37 12.1128V20.0908C38.6825 22.7558 39.3365 25.9424 38.8396 29.0546C38.4421 31.5438 37.3301 33.849 35.6582 35.6998C35.2397 36.163 34.7862 36.5978 34.3 36.9998H35.833C35.9602 37 36.0873 37.0017 36.2142 37.005C40.0971 37.1068 43.7993 38.6937 46.5527 41.4471C49.3961 44.2905 50.9955 48.1457 51 52.1668V59.9998C51 60.265 50.8946 60.5194 50.7071 60.7069C50.5196 60.8945 50.2652 60.9998 50 60.9998H2C1.73478 60.9998 1.48043 60.8945 1.29289 60.7069C1.10536 60.5194 1 60.265 1 59.9998V52.1668C1.0045 48.1457 2.60389 44.2905 5.44728 41.4471C8.2007 38.6937 11.9029 37.1068 15.7858 37.005C15.9127 37.0017 16.0398 37 16.167 36.9998H17.7C17.2138 36.5978 16.7603 36.163 16.3418 35.6998C14.6699 33.849 13.5579 31.5438 13.1604 29.0546C12.6635 25.9424 13.3175 22.7558 15 20.0908V12.1128C14.1637 11.7788 13.4386 11.2157 12.9079 10.4882C12.3773 9.76064 12.0626 8.89816 12 7.99982C12 5.19982 15.075 2.99982 19 2.99982C19.6453 2.99892 20.2891 3.0619 20.922 3.18782C21.575 2.49685 22.3622 1.94642 23.2354 1.57022C24.1085 1.19403 25.0493 1 26 1C26.9507 1 27.8915 1.19403 28.7646 1.57022C29.6378 1.94642 30.425 2.49685 31.078 3.18782C31.7109 3.0619 32.3547 2.99892 33 2.99982C36.925 2.99982 40 5.19982 40 7.99982ZM18.964 42.9998C18.7051 42.9905 18.4599 42.881 18.2801 42.6945C18.1002 42.508 17.9998 42.2589 18 41.9998V38.9998H16.167C12.676 39.0035 9.32911 40.392 6.86062 42.8604C4.39213 45.3289 3.00371 48.6759 3 52.1668V58.9998H18V50.9998C18.0016 49.6742 18.5289 48.4034 19.4662 47.466C20.3457 46.5866 21.5188 46.0681 22.7553 46.0061C22.8366 46.002 22.9182 45.9999 23 45.9998H24.384C24.0866 45.5355 23.7306 45.1113 23.325 44.7378C23.3108 44.7251 23.2965 44.7124 23.2821 44.6998C22.0853 43.6477 20.5581 43.046 18.964 42.9998ZM26 47.9998H23C22.2044 47.9998 21.4413 48.3159 20.8787 48.8785C20.3161 49.4411 20 50.2042 20 50.9998V58.9998H49V52.1668C48.9963 48.6759 47.6079 45.3289 45.1394 42.8604C42.6709 40.392 39.324 39.0035 35.833 38.9998H34V41.9998C34.0002 42.2589 33.8998 42.508 33.7199 42.6945C33.5401 42.881 33.2949 42.9905 33.036 42.9998C31.4228 43.0465 29.8781 43.6622 28.675 44.7378C27.8971 45.4565 27.3016 46.3501 26.938 47.3448C26.8674 47.5368 26.7396 47.7026 26.5719 47.8197C26.4042 47.9368 26.2046 47.9997 26 47.9998ZM27.325 43.2618C28.6286 42.0824 30.2581 41.3242 32 41.0868V38.5248C31.9811 38.5349 31.9615 38.5427 31.9413 38.5508C31.9253 38.5573 31.9088 38.5639 31.892 38.5718C31.504 38.7695 31.1061 38.9474 30.7 39.1046C30.6903 39.1084 30.6807 39.1121 30.671 39.1158C30.595 39.1458 30.519 39.1728 30.442 39.1998C30.0016 39.3616 29.5526 39.4988 29.097 39.6108L29.072 39.6168C27.0531 40.1275 24.9389 40.1275 22.92 39.6168L22.895 39.6108C22.4394 39.4988 21.9904 39.3616 21.55 39.1998C21.473 39.1728 21.397 39.1458 21.321 39.1158C21.314 39.1131 21.307 39.1104 21.3 39.1077C20.8912 38.9495 20.4907 38.7706 20.1 38.5718C20.0835 38.5619 20.0653 38.5542 20.0465 38.5462C20.0311 38.5396 20.0153 38.5329 20 38.5248V41.0868C21.7419 41.3242 23.3714 42.0824 24.675 43.2618C24.843 43.4158 25.0046 43.5764 25.1593 43.7432C25.4675 44.0753 25.7487 44.4319 26 44.8098C26.2515 44.4321 26.5327 44.0754 26.8409 43.7432C26.9956 43.5765 27.1571 43.4158 27.325 43.2618Z" stroke="black" stroke-width="1.2" mask="url(#path-9-outside-1)"/>
<path d="M23.1 33.9949L23.1324 34.2931C24.2009 34.1772 25.2033 33.7284 25.9996 33.0139C26.7954 33.7305 27.7981 34.1811 28.8674 34.2981L28.8674 34.2982L28.8743 34.2987C29.5958 34.3609 30.3225 34.2752 31.0098 34.0468C31.697 33.8185 32.3305 33.4524 32.8715 32.9709L33.0972 32.7701L32.8947 32.5458L31.5547 31.0618L31.3564 30.8422L31.1341 31.0374C30.8609 31.2774 30.5426 31.4605 30.1978 31.5761C29.8564 31.6905 29.4958 31.7365 29.1366 31.7114C28.7253 31.6502 28.3327 31.4985 27.9871 31.267C27.6386 31.0336 27.3468 30.725 27.1332 30.3641L27.1334 30.3639L27.1266 30.3534C27.0049 30.166 26.8382 30.012 26.6418 29.9054C26.4454 29.7988 26.2255 29.7429 26.002 29.7429C25.7786 29.7429 25.5586 29.7988 25.3622 29.9054C25.1658 30.012 24.9992 30.166 24.8774 30.3534L24.8772 30.3533L24.8712 30.3635C24.657 30.7237 24.3651 31.0313 24.0166 31.2639C23.671 31.4946 23.2786 31.6457 22.8676 31.7064C22.5084 31.7316 22.1477 31.6856 21.8062 31.5711C21.4615 31.4555 21.1432 31.2724 20.87 31.0325L20.6477 30.8372L20.4494 31.0568L19.1094 32.5408L18.9068 32.7652L19.1327 32.9661C20.0943 33.8209 21.3312 34.3014 22.6177 34.3198L22.6177 34.3199L22.6224 34.3199C22.7923 34.3196 22.962 34.3108 23.1309 34.2933L23.1 33.9949Z" fill="black" stroke="black" stroke-width="0.6"/>
<path d="M27.1332 30.3641L27.1334 30.3639L27.1266 30.3534C27.0049 30.166 26.8382 30.012 26.6418 29.9054C26.4454 29.7988 26.2255 29.7429 26.002 29.7429C25.7786 29.7429 25.5586 29.7988 25.3622 29.9054C25.1658 30.012 24.9992 30.166 24.8774 30.3534L24.8772 30.3533L24.8712 30.3635C24.657 30.7237 24.3651 31.0313 24.0166 31.2639C23.671 31.4946 23.2786 31.6457 22.8676 31.7064C22.5084 31.7316 22.1477 31.6856 21.8062 31.5711C21.4615 31.4555 21.1432 31.2724 20.87 31.0325L20.6477 30.8372L20.4494 31.0568L19.1094 32.5408L18.9068 32.7652L19.1327 32.9661C19.4831 33.2776 19.8701 33.5394 20.2827 33.7472C21.0024 34.1097 21.8001 34.3081 22.6177 34.3198L22.6177 34.3199L22.6224 34.3199C22.7923 34.3196 22.962 34.3108 23.1309 34.2933L23.1324 34.2931C24.2009 34.1772 25.2033 33.7284 25.9996 33.0139C26.7954 33.7305 27.7981 34.1811 28.8674 34.2981L28.8674 34.2982L28.8743 34.2987C29.5958 34.3609 30.3225 34.2752 31.0098 34.0468C31.2541 33.9657 31.4917 33.8671 31.7207 33.7521C32.1358 33.5436 32.5229 33.2812 32.8715 32.9709L33.0972 32.7701L32.8947 32.5458L31.5547 31.0618L31.3564 30.8422L31.1341 31.0374C30.8609 31.2774 30.5426 31.4605 30.1978 31.5761C29.8564 31.6905 29.4958 31.7365 29.1366 31.7114C28.7253 31.6502 28.3327 31.4985 27.9871 31.267C27.6386 31.0336 27.3468 30.725 27.1332 30.3641Z" fill="black" stroke="black" stroke-width="0.6"/>
</svg>
