<svg width="24" height="24" viewBox="0 0 24 24" fill="none" xmlns="http://www.w3.org/2000/svg">
<path fill-rule="evenodd" clip-rule="evenodd" d="M10.1707 10.1382H5.196V7.62542C6.00576 7.39358 6.82128 7.2755 7.64112 7.27454C8.47008 7.27358 9.31392 7.39166 10.1707 7.6307V10.1382ZM20.1667 6.63374C18.8362 6.1955 17.6971 5.91422 16.2734 5.91614C14.867 5.91758 13.7731 6.1931 12.4646 6.6395V10.1377H11.5344V6.63374C10.2034 6.1955 9.06528 5.91422 7.64112 5.91614C6.23472 5.91758 5.14032 6.19262 3.83232 6.6395V10.1377H2.88912V5.73134C5.84976 4.77086 8.84352 4.28318 11.8699 4.2803C14.9054 4.27646 17.9856 4.75886 21.1104 5.7371V10.1382H20.1667V6.63374ZM18.8035 10.1382H13.8288V7.62542C14.6386 7.39358 15.4536 7.2755 16.2739 7.27454C17.1034 7.27358 17.9467 7.39166 18.8035 7.6307V10.1382ZM22.6368 15.2809H1.3632V11.5014H22.6368V15.2809ZM1.60368 19.3302H22.3963L22.6363 21.0784H24V10.1382H22.4746V4.7483C18.948 3.58766 15.599 2.9171 11.8704 2.9219C8.20992 2.92574 4.97424 3.57662 1.52544 4.75454V10.1382H0V21.0784H1.3632L1.60368 19.3302ZM1.3632 16.6446H22.6368V17.9665H1.3632V16.6446Z" fill="#444444"/>
</svg>
