<svg width="24" height="24" viewBox="0 0 24 24" fill="none" xmlns="http://www.w3.org/2000/svg">
<path fill-rule="evenodd" clip-rule="evenodd" d="M7.0752 8.20443V13.1091L5.55024 14.0561L4.22304 21.5576L2.90112 14.0878L1.36992 13.0524V8.20347L1.74864 8.05899L4.22592 10.9265L6.69216 8.05851L7.0752 8.20443ZM10.225 11.7296C10.225 12.416 10.7822 12.9656 11.4605 12.9656C12.1387 12.9656 12.696 12.416 12.696 11.7296C12.696 11.0422 12.1368 10.4945 11.4605 10.4945C10.7842 10.4945 10.225 11.0422 10.225 11.7296ZM10.7386 15.8609L11.461 16.5977L12.1834 15.8609L12.5328 18.4664L11.4605 18.8278L10.3886 18.4664L10.7386 15.8609ZM12.4142 13.6678L11.4605 14.6408L10.5067 13.6678L9.62352 13.8723L8.88144 19.4033L10.4083 19.9188L10.6296 23.107H12.2918L12.5131 19.9188L14.0405 19.4033L13.2979 13.8723L12.4142 13.6678ZM16.0426 15.5969L17.4182 8.31003L19.249 10.1777L21.0216 8.32731L22.427 15.5936L19.801 16.4657L19.2317 21.2796L18.623 16.4676L16.0426 15.5969ZM16.3157 6.76635L14.4758 16.5132L17.3717 17.4915L18.0821 23.107H20.3952L21.059 17.4915L24 16.5147L22.115 6.76635L20.8925 6.48267L19.2379 8.20971L17.545 6.48267L16.3157 6.76635ZM19.2245 3.87627C18.7795 3.87627 18.4186 3.51435 18.4186 3.06891C18.4186 2.62395 18.78 2.26299 19.2245 2.26299C19.6694 2.26299 20.0309 2.62395 20.0309 3.06891C20.0309 3.51387 19.6694 3.87627 19.2245 3.87627ZM17.0486 3.06891C17.0486 4.27755 18.0307 5.24571 19.2245 5.24571C20.4254 5.24571 21.4003 4.26987 21.4003 3.06891C21.4003 1.87467 20.4322 0.893555 19.2245 0.893555C18.0336 0.893555 17.0486 1.85787 17.0486 3.06891ZM5.17872 3.21963C5.17872 3.74667 4.75056 4.17579 4.22352 4.17579C3.69648 4.17579 3.26688 3.74667 3.26688 3.21963C3.26688 2.69115 3.696 2.26347 4.22352 2.26347C4.75104 2.26347 5.17872 2.69163 5.17872 3.21963ZM4.22304 5.54523C5.5056 5.54523 6.54816 4.50315 6.54816 3.21963C6.54816 1.93611 5.50704 0.894035 4.22304 0.894035C2.95392 0.893555 1.89696 1.92027 1.89696 3.21963C1.89696 4.50315 2.94096 5.54523 4.22304 5.54523ZM6.79296 14.8971L8.44512 13.8708V7.25979L6.28032 6.43659L4.22352 8.82843L2.15712 6.43707L0 7.25979V13.7796L1.65312 14.8976L3.10608 23.107H5.33952L6.79296 14.8971Z" fill="#444444"/>
</svg>
