<svg width="344" height="105" viewBox="0 0 344 105" fill="none" xmlns="http://www.w3.org/2000/svg">
<path d="M20.5165 105C16.6432 105 13.3953 104.396 10.7727 103.189C8.15013 101.981 6.0319 100.351 4.41802 98.2979C2.84448 96.2047 1.71475 93.7694 1.02885 90.992C0.342951 88.2145 0 85.276 0 82.1765C0 80.0029 0.141215 77.5676 0.423645 74.8706C0.706076 72.1334 1.12972 69.3962 1.69458 66.659H14.2224L14.0408 79.2179C14.0408 81.8746 14.1619 84.1087 14.4039 85.9201C14.646 87.6912 15.0091 89.1202 15.4933 90.207C16.0178 91.2536 16.6634 92.0184 17.43 92.5014C18.2369 92.9442 19.2053 93.1656 20.335 93.1656C21.263 93.1656 22.0901 92.9845 22.8163 92.6222C23.5829 92.2599 24.2285 91.636 24.753 90.7504C25.2775 89.8246 25.681 88.5969 25.9634 87.0673C26.2458 85.4974 26.3871 83.5451 26.3871 81.2105L26.5686 0.905693H42.2435V79.0368C42.2435 84.3502 41.6383 88.6975 40.4279 92.0788C39.2175 95.46 37.5834 98.1167 35.5257 100.049C33.5083 101.941 31.1884 103.249 28.5658 103.974C25.9836 104.658 23.3005 105 20.5165 105Z" fill="white"/>
<path d="M82.4293 104.94C80.775 104.94 78.9796 104.799 77.0429 104.517C75.1063 104.275 73.1898 103.732 71.2935 102.887C69.3971 102.041 67.5613 100.854 65.7861 99.3243C64.0511 97.7545 62.4978 95.7016 61.126 93.1656C59.7945 90.6297 58.7253 87.5101 57.9184 83.8068C57.1114 80.0633 56.708 75.6153 56.708 70.4629V33.9333C56.708 28.7407 57.1114 24.3128 57.9184 20.6498C58.7657 16.9465 59.8752 13.847 61.247 11.3514C62.6188 8.81541 64.1722 6.80276 65.9071 5.3134C67.6824 3.82404 69.5182 2.69695 71.4145 1.93214C73.3512 1.12708 75.2677 0.603795 77.164 0.362277C79.0603 0.120759 80.8154 0 82.4293 0C83.9625 0 85.6571 0.120759 87.513 0.362277C89.4093 0.563542 91.2855 1.04658 93.1415 1.81139C95.0378 2.53594 96.8736 3.6429 98.6488 5.13226C100.424 6.58137 101.998 8.57389 103.369 11.1098C104.741 13.6055 105.831 16.7251 106.638 20.4687C107.485 24.1719 107.909 28.6602 107.909 33.9333V70.4629C107.909 75.575 107.485 79.9828 106.638 83.686C105.79 87.3491 104.681 90.4687 103.309 93.0449C101.937 95.5808 100.343 97.6337 98.5278 99.2036C96.7525 100.733 94.9167 101.941 93.0204 102.826C91.1644 103.672 89.3085 104.235 87.4525 104.517C85.5965 104.799 83.9221 104.94 82.4293 104.94ZM82.4293 93.1656C83.9625 93.1656 85.2939 92.904 86.4236 92.3807C87.5937 91.8574 88.5419 90.9517 89.2681 89.6636C90.0347 88.3755 90.5996 86.6849 90.9627 84.5917C91.3662 82.4583 91.5679 79.7815 91.5679 76.5612V29.6463C91.5679 26.3456 91.3662 23.5883 90.9627 21.3744C90.5996 19.1604 90.0347 17.3893 89.2681 16.061C88.5419 14.6924 87.5937 13.7263 86.4236 13.1627C85.2939 12.5992 83.9625 12.3174 82.4293 12.3174C80.8557 12.3174 79.4839 12.5992 78.3139 13.1627C77.1438 13.7263 76.1755 14.6924 75.4089 16.061C74.6423 17.3893 74.0572 19.1604 73.6538 21.3744C73.2906 23.5883 73.1091 26.3456 73.1091 29.6463V76.5612C73.1091 79.7815 73.2906 82.4583 73.6538 84.5917C74.0572 86.6849 74.6423 88.3755 75.4089 89.6636C76.1755 90.9517 77.1438 91.8574 78.3139 92.3807C79.4839 92.904 80.8557 93.1656 82.4293 93.1656Z" fill="white"/>
<path d="M135.022 69.678L114.203 0.905693H129.999L142.647 50.2358H143.374L155.901 0.905693H171.637L150.697 69.678V104.034H135.022V69.678Z" fill="white"/>
<path d="M190.398 13.2231H173.755V0.905693H222.656V13.2231H206.073V104.034H190.398V13.2231Z" fill="white"/>
<path d="M256.124 104.94C254.47 104.94 252.674 104.799 250.738 104.517C248.801 104.275 246.884 103.732 244.988 102.887C243.092 102.041 241.256 100.854 239.481 99.3243C237.746 97.7545 236.192 95.7016 234.821 93.1656C233.489 90.6297 232.42 87.5101 231.613 83.8068C230.806 80.0633 230.403 75.6153 230.403 70.4629V33.9333C230.403 28.7407 230.806 24.3128 231.613 20.6498C232.46 16.9465 233.57 13.847 234.942 11.3514C236.313 8.81541 237.867 6.80276 239.602 5.3134C241.377 3.82404 243.213 2.69695 245.109 1.93214C247.046 1.12708 248.962 0.603795 250.859 0.362277C252.755 0.120759 254.51 0 256.124 0C257.657 0 259.352 0.120759 261.208 0.362277C263.104 0.563542 264.98 1.04658 266.836 1.81139C268.732 2.53594 270.568 3.6429 272.343 5.13226C274.119 6.58137 275.692 8.57389 277.064 11.1098C278.436 13.6055 279.525 16.7251 280.332 20.4687C281.179 24.1719 281.603 28.6602 281.603 33.9333V70.4629C281.603 75.575 281.179 79.9828 280.332 83.686C279.485 87.3491 278.375 90.4687 277.004 93.0449C275.632 95.5808 274.038 97.6337 272.222 99.2036C270.447 100.733 268.611 101.941 266.715 102.826C264.859 103.672 263.003 104.235 261.147 104.517C259.291 104.799 257.617 104.94 256.124 104.94ZM256.124 93.1656C257.657 93.1656 258.989 92.904 260.118 92.3807C261.288 91.8574 262.236 90.9517 262.963 89.6636C263.729 88.3755 264.294 86.6849 264.657 84.5917C265.061 82.4583 265.262 79.7815 265.262 76.5612V29.6463C265.262 26.3456 265.061 23.5883 264.657 21.3744C264.294 19.1604 263.729 17.3893 262.963 16.061C262.236 14.6924 261.288 13.7263 260.118 13.1627C258.989 12.5992 257.657 12.3174 256.124 12.3174C254.55 12.3174 253.179 12.5992 252.008 13.1627C250.838 13.7263 249.87 14.6924 249.103 16.061C248.337 17.3893 247.752 19.1604 247.348 21.3744C246.985 23.5883 246.804 26.3456 246.804 29.6463V76.5612C246.804 79.7815 246.985 82.4583 247.348 84.5917C247.752 86.6849 248.337 88.3755 249.103 89.6636C249.87 90.9517 250.838 91.8574 252.008 92.3807C253.179 92.904 254.55 93.1656 256.124 93.1656Z" fill="white"/>
<path d="M296.431 0.905693H312.106C314.083 0.905693 316.241 1.00633 318.581 1.20759C320.962 1.3686 323.322 1.79126 325.662 2.47556C328.043 3.11961 330.322 4.12593 332.501 5.49454C334.72 6.86314 336.677 8.73491 338.372 11.1098C340.066 13.4445 341.418 16.383 342.426 19.9252C343.475 23.4675 344 27.7746 344 32.8465V36.4692C344 41.9839 343.516 46.7136 342.548 50.6584C341.62 54.563 340.369 57.8637 338.795 60.5607C337.222 63.2174 335.386 65.3508 333.288 66.9609C331.23 68.571 329.072 69.7987 326.812 70.6441C324.593 71.4491 322.334 71.9925 320.034 72.2743C317.774 72.5158 315.636 72.6366 313.619 72.6366H312.106V104.034H303.948H296.431V0.905693ZM312.892 61.1645C315.717 61.1645 318.097 60.7619 320.034 59.9569C321.97 59.1116 323.504 57.8235 324.633 56.0926C325.803 54.3215 326.631 52.0673 327.115 49.3301C327.639 46.5526 327.901 43.2317 327.901 39.3675V30.069C327.901 27.0098 327.68 24.3732 327.236 22.1593C326.792 19.9051 325.985 18.0535 324.815 16.6044C323.685 15.1553 322.152 14.0886 320.215 13.4043C318.279 12.6797 315.838 12.3174 312.892 12.3174H312.106V61.1645H312.892Z" fill="white"/>
</svg>
