<svg width="24" height="24" viewBox="0 0 24 24" fill="none" xmlns="http://www.w3.org/2000/svg">
<path fill-rule="evenodd" clip-rule="evenodd" d="M12.0005 3.93883C10.559 3.93883 9.38976 5.10811 9.38976 6.55003C9.38976 7.99147 10.559 9.16075 12.0005 9.16075C13.4424 9.16075 14.6112 7.99195 14.6112 6.55003C14.6112 5.10811 13.4419 3.93883 12.0005 3.93883ZM16.837 16.2955V11.7868H21.2621L21.8587 16.2955H16.837ZM16.837 6.95947C16.8653 6.79003 16.8835 6.61435 16.8946 6.44299H20.5546L21.1037 10.5926H16.837V6.95947ZM7.21104 5.09035H2.26416L0 22.1913H24L21.7358 5.09035H16.7894C16.2715 2.91019 14.1029 1.80859 12 1.80859C9.89808 1.80859 7.72896 2.91067 7.21104 5.09035ZM7.16352 6.95947V10.5926H2.89632L3.44592 6.44299H7.1064C7.11696 6.61483 7.1352 6.78955 7.16352 6.95947ZM7.16352 11.7868V16.2955H2.1408L2.73792 11.7868H7.16352ZM16.837 20.8387V17.4892H22.0176L22.4611 20.8387H16.837ZM12 14.3673C13.2696 12.9062 14.6083 11.4211 15.6432 9.78092V16.2955H8.3568V9.78139C9.39168 11.4211 10.7314 12.9062 12 14.3673ZM7.16352 17.4892V20.8387H1.53936L1.98288 17.4892H7.16352ZM8.3568 20.8387V17.4892H15.6432V20.8387H8.3568ZM12 12.3081C10.7578 10.859 8.6088 8.37452 8.46048 6.44299C8.28528 4.28011 10.0502 3.16171 12 3.16171C14.003 3.16171 15.7109 4.32187 15.5395 6.44347C15.3854 8.38363 13.248 10.8523 12 12.3081ZM12.0005 7.91227C11.2483 7.91227 10.6378 7.30219 10.6378 6.54955C10.6378 5.79691 11.2478 5.18683 12.0005 5.18683C12.7531 5.18683 13.3632 5.79691 13.3632 6.54955C13.3632 7.30219 12.7526 7.91227 12.0005 7.91227Z" fill="#444444"/>
</svg>
