<svg width="22" height="22" viewBox="0 0 22 22" fill="none" xmlns="http://www.w3.org/2000/svg">
<g clip-path="url(#clip0)">
<path d="M15 19V17C15 15.9391 14.6313 14.9217 13.9749 14.1716C13.3185 13.4214 12.4283 13 11.5 13H4.5C3.57174 13 2.6815 13.4214 2.02513 14.1716C1.36875 14.9217 1 15.9391 1 17V19" stroke="#444444" stroke-width="2" stroke-linecap="round" stroke-linejoin="round"/>
<path d="M8.5 10C10.433 10 12 8.433 12 6.5C12 4.567 10.433 3 8.5 3C6.567 3 5 4.567 5 6.5C5 8.433 6.567 10 8.5 10Z" stroke="#444444" stroke-width="2" stroke-linecap="round" stroke-linejoin="round"/>
<path d="M20 19V16.9557C19.9996 16.0498 19.8029 15.1698 19.4409 14.4538C19.0789 13.7378 18.5721 13.2265 18 13" stroke="#444444" stroke-width="2" stroke-linecap="round" stroke-linejoin="round"/>
<path d="M14 4C14.5721 4.17056 15.0792 4.55796 15.4413 5.10114C15.8034 5.64432 16 6.31238 16 7C16 7.68762 15.8034 8.35567 15.4413 8.89886C15.0792 9.44204 14.5721 9.82944 14 10" stroke="#444444" stroke-width="2" stroke-linecap="round" stroke-linejoin="round"/>
</g>
<defs>
<clipPath id="clip0">
<rect width="22" height="22" fill="white"/>
</clipPath>
</defs>
</svg>
