<svg width="45" height="51" viewBox="0 0 45 51" fill="none" xmlns="http://www.w3.org/2000/svg">
<path d="M4 32H7V51H4V32Z" fill="black"/>
<path d="M4 32H7V23H4V32Z" fill="black"/>
<path d="M12 32H15V51H12V32Z" fill="black"/>
<path d="M12 32H15V23H12V32Z" fill="black"/>
<path d="M20 32H23V51H20V32Z" fill="black"/>
<path d="M20 32H23V23H20V32Z" fill="black"/>
<path d="M28 32H31V51H28V32Z" fill="black"/>
<path d="M28 32H31V23H28V32Z" fill="black"/>
<path d="M36 32H39V51H36V32Z" fill="black"/>
<path d="M36 32H39V23H36V32Z" fill="black"/>
<path d="M4 51L4 48L39 48L39 51L4 51Z" fill="black"/>
<path d="M0 32L-1.31134e-07 29L45 29L45 32L0 32Z" fill="black"/>
<path d="M39 32L39 29L45 29L45 32L39 32Z" fill="black"/>
<path d="M42 26H45V32H42V26Z" fill="black"/>
<path d="M4 23L4 20L39 20L39 23L4 23Z" fill="black"/>
<path d="M22.2998 6.60432L22.3 6.604L22.3017 6.60076C22.9341 5.41387 23.559 4.24114 23.559 0H26.399C26.399 4.92962 25.6034 6.42117 24.7967 7.93373L24.796 7.935C24.139 9.166 23.472 10.417 23.472 15.09H20.631C20.631 9.73236 21.4719 8.15622 22.2998 6.60432Z" fill="black"/>
<path d="M30.9276 6.60847L30.93 6.604L30.9309 6.60232C31.5646 5.41489 32.19 4.24299 32.19 0H35.03C35.03 4.931 34.234 6.422 33.426 7.935L33.4241 7.93858C32.7687 9.16943 32.102 10.4215 32.102 15.09H29.261C29.261 9.73614 30.1014 8.15903 30.9276 6.60847Z" fill="black"/>
<path d="M14.841 15.091H12C12 9.732 12.841 8.156 13.669 6.605L13.6712 6.60093C14.3034 5.41332 14.928 4.24016 14.928 0.000999928H17.769C17.769 4.93062 16.9734 6.42217 16.1667 7.93473L16.166 7.936L16.1657 7.93648C15.5088 9.16733 14.841 10.4186 14.841 15.091Z" fill="black"/>
</svg>
