<svg width="24" height="24" viewBox="0 0 24 24" fill="none" xmlns="http://www.w3.org/2000/svg">
<path fill-rule="evenodd" clip-rule="evenodd" d="M20.1085 4.45008V0H3.89122V4.45008H2.52178V22.631H1.37842V24H22.6208V22.6306H21.4775V4.45008H20.1085ZM11.396 19.4611V22.6306H9.7621V19.4611H11.396ZM12.6042 19.4611H14.2376V22.6306H12.6042V19.4611ZM3.89122 5.81952H20.1085V22.631H15.4458V18.2534H8.55394V22.631H3.89122V5.81952ZM18.7395 4.45008H5.26018V1.36944H18.7395V4.45008ZM7.63138 8.6664V7.29696H5.3173V8.6664H7.63138ZM9.00082 7.29696V8.6664H11.3149V7.29696H9.00082ZM12.6848 7.29696V8.6664H14.9989V7.29696H12.6848ZM16.3683 7.29696V8.6664H18.6824V7.29696H16.3683ZM7.63138 11.4053V10.0358H5.3173V11.4053H7.63138ZM9.00082 10.0358V11.4053H11.3149V10.0358H9.00082ZM12.6848 10.0358V11.4053H14.9989V10.0358H12.6848ZM16.3683 10.0358V11.4053H18.6824V10.0358H16.3683ZM18.6824 12.7752H16.3683V14.1446H18.6824V12.7752ZM14.9989 14.1446V12.7752H12.6848V14.1446H14.9989ZM11.3149 14.1446V12.7752H9.00082V14.1446H11.3149ZM7.63138 14.1446V12.7752H5.3173V14.1446H7.63138ZM7.63138 15.5141H5.3173V16.8835H7.63138V15.5141ZM9.00082 15.5141V16.8835H11.3149V15.5141H9.00082ZM12.6848 15.5141V16.8835H14.9989V15.5141H12.6848ZM16.3683 15.5141V16.8835H18.6824V15.5141H16.3683ZM18.6824 18.253H16.3683V19.6224H18.6824V18.253ZM7.63138 19.6224V18.253H5.3173V19.6224H7.63138Z" fill="#444444"/>
<path d="M11.52 4.32043V1.44043H12.48V4.32043H11.52Z" fill="#444444"/>
<path d="M10.5599 2.40039L13.4399 2.40039L13.4399 3.36039L10.5599 3.36039L10.5599 2.40039Z" fill="#444444"/>
</svg>
