<svg width="52" height="42" viewBox="0 0 52 42" fill="none" xmlns="http://www.w3.org/2000/svg">
<path d="M17.6113 9.91675H0.111328V42.0001H15.278H17.6113H51.4447V21.0001H17.6113V9.91675ZM15.278 39.6667H2.44466V23.3334H15.278V39.6667ZM15.278 21.0001H2.44466V12.2501H15.278V21.0001ZM33.3613 39.6667H17.6113V32.6667H33.3613V39.6667ZM35.6947 23.3334H49.1113V28.0001H35.6947V23.3334ZM35.6947 30.3334H49.1113V39.6667H35.6947V30.3334ZM33.3613 23.3334V30.3334H17.6113V23.3334H33.3613Z" fill="black"/>
<path d="M13.5286 17.4999H11.1953V19.8332H13.5286V17.4999Z" fill="black"/>
<path d="M13.5286 25.0834H11.1953V30.3334H13.5286V25.0834Z" fill="black"/>
<path d="M39.7786 24.5001H37.4453V26.8335H39.7786V24.5001Z" fill="black"/>
<path d="M43.8607 24.5001H41.5273V26.8335H43.8607V24.5001Z" fill="black"/>
<path d="M37.4453 37.9166H47.362V32.0833H37.4453V37.9166ZM39.7786 34.4166H45.0286V35.5833H39.7786V34.4166Z" fill="black"/>
<path d="M28.1113 25.6667H22.8613V28.0001H28.1113V25.6667Z" fill="black"/>
<path d="M28.1113 35H22.8613V37.3333H28.1113V35Z" fill="black"/>
<path d="M49.1113 0H35.6947V9.91667H33.3613V12.25H51.4447V9.91667H49.1113V0ZM46.778 9.91667H38.028V2.33333H46.778V9.91667Z" fill="black"/>
</svg>
