<svg width="50" height="40" viewBox="0 0 50 40" fill="none" xmlns="http://www.w3.org/2000/svg">
<path fill-rule="evenodd" clip-rule="evenodd" d="M14.723 6.65698C13.895 8.20898 13.054 9.78498 13.054 15.143H15.895C15.895 10.47 16.562 9.21898 17.219 7.98798C18.026 6.47498 18.822 4.98398 18.822 0.0529785H15.982C15.982 4.29798 15.356 5.46898 14.723 6.65698ZM23.353 6.65698C22.526 8.20898 21.684 9.78398 21.684 15.143H24.525C24.525 10.47 25.193 9.21998 25.849 7.98798C26.657 6.47498 27.453 4.98398 27.453 0.0529785H24.613C24.613 4.29798 23.987 5.46898 23.353 6.65698ZM50 13.723H29.833V16.564H50V13.723ZM46.214 7.12498C46.214 8.41298 45.169 9.45698 43.881 9.45698C42.594 9.45698 41.55 8.41298 41.55 7.12498C41.55 5.83798 42.594 4.79298 43.881 4.79298C45.169 4.79298 46.214 5.83598 46.214 7.12498ZM38.709 7.12498C38.709 9.98098 41.025 12.297 43.881 12.297C46.738 12.297 49.054 9.98098 49.054 7.12498C49.054 4.26798 46.738 1.95198 43.881 1.95198C41.025 1.95198 38.709 4.26898 38.709 7.12498ZM4.072 20.83H45.928V37.106H4.072V20.83ZM50 17.989H0V20.829H1.232V37.105H0V39.946H50V37.105H48.768V20.83H50V17.989ZM37.517 22.374V35.561H40.358V22.374H37.517ZM33.429 35.561V22.374H30.589V35.561H33.429ZM26.42 35.561V22.374H23.58V35.561H26.42ZM19.573 35.561V22.374H16.732V35.561H19.573ZM12.726 35.561V22.374H9.885V35.561H12.726ZM4.423 15.144H7.264C7.264 10.471 7.932 9.21998 8.589 7.98898C9.396 6.47598 10.192 4.98498 10.192 0.0539784H7.351C7.351 4.29798 6.725 5.46898 6.092 6.65798C5.264 8.20898 4.423 9.78498 4.423 15.144Z" fill="black"/>
</svg>
