<svg width="17" height="17" viewBox="0 0 17 17" fill="none" xmlns="http://www.w3.org/2000/svg">
<path d="M14.3333 7.02727C14.3333 11.7152 8.66667 15.7333 8.66667 15.7333C8.66667 15.7333 3 11.7152 3 7.02727C3 5.42874 3.59702 3.89568 4.65973 2.76535C5.72243 1.63501 7.16377 1 8.66667 1C10.1696 1 11.6109 1.63501 12.6736 2.76535C13.7363 3.89568 14.3333 5.42874 14.3333 7.02727Z" stroke="#FF7E47" stroke-width="1.5" stroke-linecap="round" stroke-linejoin="round"/>
<path d="M8.66706 8.9333C9.9189 8.9333 10.9337 7.91848 10.9337 6.66663C10.9337 5.41478 9.9189 4.39996 8.66706 4.39996C7.41521 4.39996 6.40039 5.41478 6.40039 6.66663C6.40039 7.91848 7.41521 8.9333 8.66706 8.9333Z" stroke="#FF7E47" stroke-width="1.5" stroke-linecap="round" stroke-linejoin="round"/>
</svg>
