<svg width="24" height="24" viewBox="0 0 24 24" fill="none" xmlns="http://www.w3.org/2000/svg">
<g clip-path="url(#clip0)">
<path fill-rule="evenodd" clip-rule="evenodd" d="M12 22.63C17.8708 22.63 22.63 17.8708 22.63 12C22.63 6.12921 17.8708 1.37 12 1.37C6.12921 1.37 1.37 6.12921 1.37 12C1.37 17.8708 6.12921 22.63 12 22.63ZM12 24C18.6274 24 24 18.6274 24 12C24 5.37258 18.6274 0 12 0C5.37258 0 0 5.37258 0 12C0 18.6274 5.37258 24 12 24Z" fill="#FF4747"/>
<path d="M2 15.2V8.8C7.16564 9.44613 10.0412 9.01963 15 4V20C9.74057 16.2832 6.89937 15.4199 2 15.2Z" stroke="#444444" stroke-width="1.37"/>
<path d="M17 6.5L22.5 4.5" stroke="#444444"/>
<path d="M17 17L22.5 19" stroke="#444444"/>
<path d="M17.5 12H22.5" stroke="#444444"/>
<path d="M24.2824 23.3141L24.5651 23.0313L24.2824 22.7485L1.28284 -0.251003L1.00454 -0.529307L0.721769 -0.255541L-0.278231 0.712619L-0.570497 0.99558L-0.28265 1.28304L22.7487 24.283L23.0316 24.5656L23.3143 24.2828L24.2824 23.3141Z" fill="#FF4747" stroke="white" stroke-width="0.8"/>
</g>
<defs>
<clipPath id="clip0">
<rect width="24" height="24" fill="white"/>
</clipPath>
</defs>
</svg>
