<svg width="48" height="48" viewBox="0 0 48 48" fill="none" xmlns="http://www.w3.org/2000/svg">
<path fill-rule="evenodd" clip-rule="evenodd" d="M41.247 19.3387L43.2205 21.3116C43.8783 21.9692 42.8916 22.9557 42.2338 22.2981L40.2603 20.3252C39.6025 19.6675 40.5892 18.6811 41.247 19.3387ZM25.1997 3.96408L27.1732 5.93699C27.831 6.59462 26.8443 7.58107 26.1865 6.92344L24.213 4.95054C23.5552 4.2929 24.5419 3.30645 25.1997 3.96408ZM27.1732 20.3252L25.1997 22.2981C24.5419 22.9557 23.5552 21.9692 24.213 21.3116L26.1865 19.3387C26.8443 18.6811 27.831 19.6675 27.1732 20.3252ZM43.2205 4.95054L41.247 6.92344C40.5892 7.58107 39.6025 6.59462 40.2603 5.93699L42.2338 3.96408C42.8916 3.30645 43.8783 4.2929 43.2205 4.95054ZM24.9954 13.8286H22.2046C21.2743 13.8286 21.2743 12.4335 22.2046 12.4335H24.9954C25.9257 12.4335 25.9257 13.8286 24.9954 13.8286ZM45.9267 13.8286H43.1358C42.2055 13.8286 42.2055 12.4335 43.1358 12.4335H45.9267C46.8569 12.4335 46.8569 13.8286 45.9267 13.8286ZM34.0656 18.0138C31.3683 18.0138 29.1816 15.8277 29.1816 13.1311C29.1816 10.4344 31.3683 8.24839 34.0656 8.24839C36.7629 8.24839 38.9496 10.4344 38.9496 13.1311C38.9496 15.8277 36.7629 18.0138 34.0656 18.0138ZM34.0656 16.6187C35.9923 16.6187 37.5541 15.0572 37.5541 13.1311C37.5541 11.2049 35.9923 9.64344 34.0656 9.64344C32.1389 9.64344 30.5771 11.2049 30.5771 13.1311C30.5771 15.0572 32.1389 16.6187 34.0656 16.6187ZM27.0885 42.4272H22.9023V45.9148C22.9023 46.3 22.5899 46.6123 22.2046 46.6123C21.8192 46.6123 21.5068 46.3 21.5068 45.9148V41.7296C21.5068 41.3444 21.8192 41.0321 22.2046 41.0321H27.0885V36.1494C27.0885 35.2194 28.4839 35.2194 28.4839 36.1494V45.9148C28.4839 46.8448 27.0885 46.8448 27.0885 45.9148V42.4272ZM15.2275 22.2159C18.7674 22.3898 21.4803 23.8938 23.4423 26.2911C24.1699 27.1802 24.7402 28.1305 25.1727 29.0817C25.4344 29.6573 25.5938 30.1117 25.6685 30.3857C25.7896 30.8294 25.4554 31.2667 24.9954 31.2667H15.2275V36.847H20.8091C21.1945 36.847 21.5068 37.1592 21.5068 37.5445C21.5068 37.9297 21.1945 38.242 20.8091 38.242H15.2275V45.2173H17.3206C17.7059 45.2173 18.0183 45.5296 18.0183 45.9148C18.0183 46.3 17.7059 46.6123 17.3206 46.6123H11.7389C11.3536 46.6123 11.0412 46.3 11.0412 45.9148C11.0412 45.5296 11.3536 45.2173 11.7389 45.2173H13.8321V38.242H8.25038C7.86505 38.242 7.55267 37.9297 7.55267 37.5445C7.55267 37.1592 7.86505 36.847 8.25038 36.847H13.8321V31.2667H4.06413C3.35174 31.2667 3.20471 30.7452 3.27765 30.1541C3.31327 29.8655 3.41881 29.5048 3.58189 29.1062C3.94967 28.2075 4.56816 27.2023 5.36757 26.2769C7.41166 23.9107 10.2678 22.3912 13.8321 22.2159V20.0984C13.8321 19.7132 14.1444 19.4009 14.5298 19.4009C14.9151 19.4009 15.2275 19.7132 15.2275 20.0984V22.2159ZM23.9964 29.8717C23.9665 29.8022 23.9352 29.7312 23.9023 29.659C23.5172 28.8118 23.0083 27.9639 22.3623 27.1745C20.5266 24.9315 17.9724 23.594 14.5298 23.594C11.0653 23.594 8.34573 24.9638 6.42366 27.1887C5.72262 28.0003 5.18379 28.876 4.87342 29.6345C4.83939 29.7176 4.80919 29.7971 4.78296 29.8717H23.9964ZM41.0427 43.0411L38.0756 46.3782C37.4576 47.0733 36.4146 46.1465 37.0327 45.4514L40.8069 41.2065L39.8235 40.1005C39.5675 39.8125 39.5934 39.3717 39.8814 39.1157C40.1694 38.8598 40.6105 38.8857 40.8665 39.1736L41.7404 40.1566L42.6143 39.1736C43.2324 38.4785 44.2753 39.4054 43.6573 40.1005L42.6739 41.2065L46.4481 45.4514C46.7041 45.7393 46.6782 46.1802 46.3902 46.4361C46.1022 46.6921 45.6612 46.6661 45.4052 46.3782L42.4381 43.0411V45.9148C42.4381 46.3 42.1257 46.6123 41.7404 46.6123C41.3551 46.6123 41.0427 46.3 41.0427 45.9148V43.0411ZM1.971 41.0321H6.85496C7.2403 41.0321 7.55267 41.3444 7.55267 41.7296V45.9148C7.55267 46.3 7.2403 46.6123 6.85496 46.6123C6.46963 46.6123 6.15726 46.3 6.15726 45.9148V42.4272H1.971V45.9148C1.971 46.3 1.65863 46.6123 1.2733 46.6123C0.887961 46.6123 0.575586 46.3 0.575586 45.9148V36.1494C0.575586 35.7642 0.887961 35.4519 1.2733 35.4519C1.65863 35.4519 1.971 35.7642 1.971 36.1494V41.0321ZM41.1956 26.6458C41.4363 26.345 41.8754 26.2963 42.1763 26.5369C42.4771 26.7776 42.5259 27.2165 42.2852 27.5173C42.2386 27.5756 42.1506 27.71 42.0593 27.9001C41.6998 28.6489 41.6998 29.4019 42.2852 30.1335C43.2503 31.3395 43.2503 32.6532 42.6795 33.842C42.5382 34.1363 42.3936 34.3571 42.2852 34.4926C42.0445 34.7934 41.6054 34.8422 41.3045 34.6015C41.0036 34.3609 40.9549 33.9219 41.1956 33.6211C41.2422 33.5628 41.3302 33.4284 41.4215 33.2383C41.781 32.4896 41.781 31.7365 41.1956 31.005C40.2305 29.799 40.2305 28.4853 40.8013 27.2964C40.9426 27.0021 41.0872 26.7813 41.1956 26.6458ZM33.3679 1.27313C33.3679 0.887901 33.6803 0.575608 34.0656 0.575608C34.4509 0.575608 34.7633 0.887901 34.7633 1.27313V4.06324C34.7633 4.44847 34.4509 4.76076 34.0656 4.76076C33.6803 4.76076 33.3679 4.44847 33.3679 4.06324V1.27313ZM33.3679 22.1989C33.3679 21.8137 33.6803 21.5014 34.0656 21.5014C34.4509 21.5014 34.7633 21.8137 34.7633 22.1989V24.989C34.7633 25.3742 34.4509 25.6865 34.0656 25.6865C33.6803 25.6865 33.3679 25.3742 33.3679 24.989V22.1989Z" fill="black"/>
<path fill-rule="evenodd" clip-rule="evenodd" d="M41.654 18.9316L43.6275 20.9045C43.9024 21.1794 44.0314 21.5226 44.0109 21.8695C43.9914 22.2022 43.8375 22.4951 43.6274 22.7051C43.4174 22.9152 43.1245 23.0689 42.7918 23.0885C42.4449 23.1089 42.1017 22.98 41.8268 22.7051L39.8534 20.7322C39.5785 20.4574 39.4495 20.1142 39.4699 19.7673C39.4895 19.4346 39.6433 19.1417 39.8534 18.9316C40.0635 18.7216 40.3564 18.5679 40.6891 18.5483C41.0359 18.5279 41.3791 18.6568 41.654 18.9316ZM25.6067 3.55701L27.5802 5.52992C27.8551 5.80476 27.9841 6.14795 27.9636 6.49485C27.9441 6.82759 27.7902 7.12049 27.5802 7.33051C27.3701 7.54053 27.0772 7.69428 26.7445 7.71384C26.3976 7.73424 26.0544 7.60535 25.7795 7.33051L23.8061 5.35761C23.5312 5.08276 23.4022 4.73958 23.4226 4.39267C23.4422 4.05993 23.596 3.76703 23.8061 3.55701C24.0162 3.34699 24.3091 3.19325 24.6418 3.17368C24.9886 3.15329 25.3318 3.28217 25.6067 3.55701ZM27.5802 20.7322L25.6067 22.7051C25.3318 22.98 24.9886 23.1089 24.6418 23.0885C24.3091 23.0689 24.0162 22.9152 23.8061 22.7051C23.596 22.4951 23.4422 22.2022 23.4226 21.8695C23.4022 21.5226 23.5312 21.1794 23.8061 20.9045L25.7795 18.9316C26.0544 18.6568 26.3976 18.5279 26.7445 18.5483C27.0772 18.5679 27.3701 18.7216 27.5802 18.9316C27.7902 19.1417 27.9441 19.4346 27.9636 19.7673C27.9841 20.1142 27.8551 20.4574 27.5802 20.7322ZM43.6275 5.35761L41.654 7.33051C41.3791 7.60535 41.0359 7.73424 40.6891 7.71384C40.3564 7.69428 40.0635 7.54053 39.8534 7.33051C39.6433 7.12049 39.4895 6.82759 39.4699 6.49485C39.4495 6.14795 39.5785 5.80476 39.8534 5.52992L41.8268 3.55701C42.1017 3.28217 42.4449 3.15329 42.7918 3.17368C43.1245 3.19325 43.4174 3.34699 43.6274 3.55701C43.8375 3.76703 43.9914 4.05993 44.0109 4.39267C44.0314 4.73958 43.9024 5.08276 43.6275 5.35761ZM24.9954 14.4042H22.2046C21.8159 14.4042 21.482 14.2528 21.2511 13.9931C21.0297 13.744 20.9313 13.4281 20.9313 13.1311C20.9313 12.834 21.0297 12.5181 21.2511 12.2691C21.482 12.0094 21.8159 11.8579 22.2046 11.8579H24.9954C25.3841 11.8579 25.718 12.0094 25.9489 12.2691C26.1703 12.5181 26.2687 12.834 26.2687 13.1311C26.2687 13.4281 26.1703 13.744 25.9489 13.9931C25.718 14.2528 25.3841 14.4042 24.9954 14.4042ZM45.9267 14.4042H43.1358C42.7471 14.4042 42.4133 14.2528 42.1824 13.9931C41.9609 13.744 41.8625 13.4281 41.8625 13.1311C41.8625 12.834 41.9609 12.5181 42.1824 12.2691C42.4133 12.0094 42.7471 11.8579 43.1358 11.8579H45.9267C46.3154 11.8579 46.6492 12.0094 46.8801 12.2691C47.1016 12.5181 47.2 12.834 47.2 13.1311C47.2 13.4281 47.1016 13.744 46.8801 13.9931C46.6492 14.2528 46.3154 14.4042 45.9267 14.4042ZM34.0656 18.5894C31.0505 18.5894 28.6061 16.1457 28.6061 13.1311C28.6061 10.1164 31.0505 7.67278 34.0656 7.67278C37.0807 7.67278 39.5252 10.1164 39.5252 13.1311C39.5252 16.1457 37.0807 18.5894 34.0656 18.5894ZM34.0656 16.0431C35.6745 16.0431 36.9786 14.7392 36.9786 13.1311C36.9786 11.523 35.6745 10.2191 34.0656 10.2191C32.4567 10.2191 31.1527 11.523 31.1527 13.1311C31.1527 14.7392 32.4567 16.0431 34.0656 16.0431ZM22.9023 45.9148C22.9023 46.3 22.5899 46.6123 22.2046 46.6123C21.8192 46.6123 21.5068 46.3 21.5068 45.9148V41.7296C21.5068 41.3444 21.8192 41.0321 22.2046 41.0321H27.0885V36.1494C27.0885 35.2194 28.4839 35.2194 28.4839 36.1494V45.9148C28.4839 46.8448 27.0885 46.8448 27.0885 45.9148V42.4272H22.9023V45.9148ZM23.4779 43.0028V45.9148C23.4779 46.6181 22.9077 47.1879 22.2046 47.1879C21.5015 47.1879 20.9313 46.6181 20.9313 45.9148V41.7296C20.9313 41.0264 21.5015 40.4565 22.2046 40.4565H26.5129V36.1494C26.5129 35.7607 26.6645 35.4268 26.9242 35.196C27.1733 34.9746 27.4892 34.8763 27.7862 34.8763C28.0833 34.8763 28.3992 34.9746 28.6483 35.196C28.908 35.4268 29.0596 35.7607 29.0596 36.1494V45.9148C29.0596 46.3035 28.908 46.6374 28.6483 46.8682C28.3992 47.0896 28.0833 47.1879 27.7862 47.1879C27.4892 47.1879 27.1733 47.0896 26.9242 46.8682C26.6645 46.6374 26.5129 46.3035 26.5129 45.9148V43.0028H23.4779ZM15.8031 21.6785C19.2455 21.9831 21.9281 23.5321 23.8877 25.9266C24.6492 26.8571 25.2452 27.8505 25.6967 28.8435C25.9677 29.4395 26.1391 29.9234 26.2239 30.2342C26.4449 31.0443 25.8348 31.8424 24.9954 31.8424H15.8031V36.2713H20.8092C21.5123 36.2713 22.0825 36.8412 22.0825 37.5445C22.0825 38.2478 21.5123 38.8176 20.8092 38.8176H15.8031V44.6417H17.3206C18.0237 44.6417 18.5939 45.2115 18.5939 45.9148C18.5939 46.6181 18.0237 47.1879 17.3206 47.1879H11.7389C11.0359 47.1879 10.4656 46.6181 10.4656 45.9148C10.4656 45.2115 11.0359 44.6417 11.7389 44.6417H13.2565V38.8176H8.25041C7.54731 38.8176 6.97709 38.2478 6.97709 37.5445C6.97709 36.8412 7.54731 36.2713 8.25041 36.2713H13.2565V31.8424H4.06415C3.54774 31.8424 3.11686 31.6382 2.8766 31.2176C2.66786 30.8522 2.66451 30.423 2.70639 30.0836C2.75061 29.7254 2.87566 29.3123 3.04918 28.8882C3.44329 27.9251 4.09687 26.8674 4.93201 25.9006C6.97059 23.5408 9.78395 21.984 13.2565 21.6785V20.0984C13.2565 19.3951 13.8267 18.8253 14.5298 18.8253C15.2329 18.8253 15.8031 19.3951 15.8031 20.0984V21.6785ZM15.2275 22.2159C18.7674 22.3898 21.4803 23.8938 23.4423 26.2911C24.1699 27.1802 24.7402 28.1305 25.1727 29.0817C25.4344 29.6573 25.5938 30.1117 25.6685 30.3857C25.7896 30.8294 25.4554 31.2667 24.9954 31.2667H15.2275V36.847H20.8091C21.1945 36.847 21.5068 37.1592 21.5068 37.5445C21.5068 37.9297 21.1945 38.242 20.8091 38.242H15.2275V45.2173H17.3206C17.7059 45.2173 18.0183 45.5296 18.0183 45.9148C18.0183 46.3 17.7059 46.6123 17.3206 46.6123H11.7389C11.3536 46.6123 11.0412 46.3 11.0412 45.9148C11.0412 45.5296 11.3536 45.2173 11.7389 45.2173H13.8321V38.242H8.25038C7.86505 38.242 7.55267 37.9297 7.55267 37.5445C7.55267 37.1592 7.86505 36.847 8.25038 36.847H13.8321V31.2667H4.06413C3.35174 31.2667 3.20471 30.7452 3.27765 30.1541C3.31327 29.8655 3.41881 29.5048 3.58189 29.1062C3.94967 28.2075 4.56816 27.2023 5.36757 26.2769C7.41166 23.9107 10.2678 22.3912 13.8321 22.2159V20.0984C13.8321 19.7132 14.1444 19.4009 14.5298 19.4009C14.9151 19.4009 15.2275 19.7132 15.2275 20.0984V22.2159ZM4.78296 29.8717C4.80919 29.7971 4.83939 29.7176 4.87342 29.6345C4.91863 29.524 4.96871 29.411 5.02342 29.2961C5.34424 28.6222 5.82474 27.882 6.42366 27.1887C8.34573 24.9638 11.0653 23.594 14.5298 23.594C17.9724 23.594 20.5266 24.9315 22.3623 27.1745C22.916 27.8511 23.369 28.5708 23.7297 29.2961C23.7898 29.4169 23.8473 29.538 23.9023 29.659C23.9352 29.7312 23.9665 29.8022 23.9964 29.8717H4.78296ZM5.66704 29.2961H23.0826C22.7633 28.6942 22.3764 28.1006 21.9168 27.5391C20.1906 25.4298 17.8 24.1696 14.5298 24.1696C11.2333 24.1696 8.67246 25.4661 6.85926 27.565C6.36415 28.1382 5.95894 28.7401 5.66704 29.2961ZM40.4671 44.5548L38.5058 46.7607C38.2475 47.0512 37.9125 47.2 37.565 47.2C37.2318 47.2 36.9303 47.0637 36.7083 46.8664C36.4862 46.6691 36.3155 46.3857 36.2764 46.0547C36.2356 45.7096 36.3442 45.3594 36.6025 45.0689L40.0367 41.2065L39.3934 40.4829C38.9261 39.9574 38.9734 39.1526 39.4991 38.6855C40.0247 38.2184 40.8294 38.2657 41.2966 38.7912L41.7404 39.2903L42.1842 38.7912C42.4425 38.5007 42.7775 38.3518 43.125 38.3518C43.4582 38.3518 43.7597 38.4881 43.9817 38.6855C44.2038 38.8828 44.3746 39.1661 44.4136 39.4971C44.4544 39.8423 44.3458 40.1924 44.0875 40.4829L43.4442 41.2065L46.8783 45.0689C47.3456 45.5945 47.2982 46.3992 46.7726 46.8664C46.247 47.3334 45.4422 47.2861 44.975 46.7607L43.0137 44.5548V45.9148C43.0137 46.6181 42.4435 47.1879 41.7404 47.1879C41.0373 47.1879 40.4671 46.6181 40.4671 45.9148V44.5548ZM38.0756 46.3782C37.4576 47.0733 36.4146 46.1465 37.0327 45.4514L40.8069 41.2065L39.8235 40.1005C39.5675 39.8125 39.5934 39.3717 39.8814 39.1157C40.1694 38.8598 40.6105 38.8857 40.8665 39.1736L41.7404 40.1566L42.6143 39.1736C43.2324 38.4785 44.2753 39.4054 43.6573 40.1005L42.6739 41.2065L46.4481 45.4514C46.7041 45.7393 46.6782 46.1802 46.3902 46.4361C46.1022 46.6921 45.6612 46.6661 45.4052 46.3782L42.4381 43.0411V45.9148C42.4381 46.3 42.1257 46.6123 41.7404 46.6123C41.3551 46.6123 41.0427 46.3 41.0427 45.9148V43.0411L38.0756 46.3782ZM2.54664 40.4565H6.85499C7.55808 40.4565 8.12831 41.0264 8.12831 41.7296V45.9148C8.12831 46.6181 7.55808 47.1879 6.85499 47.1879C6.1519 47.1879 5.58167 46.6181 5.58167 45.9148V43.0028H2.54664V45.9148C2.54664 46.6181 1.97641 47.1879 1.27332 47.1879C0.570227 47.1879 0 46.6181 0 45.9148V36.1494C0 35.4462 0.570223 34.8763 1.27332 34.8763C1.97641 34.8763 2.54664 35.4462 2.54664 36.1494V40.4565ZM6.85496 41.0321C7.2403 41.0321 7.55267 41.3444 7.55267 41.7296V45.9148C7.55267 46.3 7.2403 46.6123 6.85496 46.6123C6.46963 46.6123 6.15726 46.3 6.15726 45.9148V42.4272H1.971V45.9148C1.971 46.3 1.65863 46.6123 1.2733 46.6123C0.887961 46.6123 0.575586 46.3 0.575586 45.9148V36.1494C0.575586 35.7642 0.887961 35.4519 1.2733 35.4519C1.65863 35.4519 1.971 35.7642 1.971 36.1494V41.0321H6.85496ZM40.7462 26.2862C41.1855 25.7372 41.9867 25.6482 42.5358 26.0874C43.085 26.5266 43.1741 27.3279 42.7347 27.877C42.7347 27.877 42.7333 27.8787 42.7303 27.8828C42.7273 27.8869 42.7233 27.8925 42.7184 27.8997C42.7085 27.9142 42.6958 27.9337 42.6811 27.958C42.6515 28.0066 42.6157 28.0712 42.5782 28.1492C42.4307 28.4565 42.3731 28.7307 42.3919 28.9798C42.4104 29.2239 42.5053 29.4872 42.7347 29.7738C43.8574 31.1768 43.8507 32.7325 43.1984 34.0911C43.0408 34.4194 42.8738 34.6784 42.7347 34.8522C42.2954 35.4012 41.4941 35.4902 40.945 35.0511C40.3959 34.6118 40.3068 33.8106 40.7462 33.2615L40.7469 33.2605C40.7469 33.2605 40.7489 33.258 40.7506 33.2556C40.7535 33.2516 40.7575 33.246 40.7624 33.2388C40.7724 33.2242 40.785 33.2048 40.7998 33.1805C40.8293 33.1318 40.8652 33.0672 40.9026 32.9892C41.0501 32.6819 41.1078 32.4078 41.0889 32.1586C41.0705 31.9145 40.9755 31.6512 40.7462 31.3646C39.6235 29.9616 39.6301 28.4059 40.2824 27.0473C40.4401 26.719 40.607 26.4601 40.7462 26.2862ZM32.7923 1.27314C32.7923 0.569856 33.3625 0 34.0656 0C34.7687 0 35.3389 0.56986 35.3389 1.27314V4.06324C35.3389 4.76651 34.7687 5.33637 34.0656 5.33637C33.3625 5.33637 32.7923 4.76652 32.7923 4.06324V1.27314ZM32.7923 22.1989C32.7923 21.4956 33.3625 20.9258 34.0656 20.9258C34.7687 20.9258 35.3389 21.4956 35.3389 22.1989V24.989C35.3389 25.6923 34.7687 26.2622 34.0656 26.2622C33.3625 26.2622 32.7923 25.6923 32.7923 24.989V22.1989ZM43.2205 21.3116L41.247 19.3387C40.5892 18.6811 39.6025 19.6675 40.2603 20.3252L42.2338 22.2981C42.8916 22.9557 43.8783 21.9692 43.2205 21.3116ZM27.1732 5.93699L25.1997 3.96408C24.5419 3.30645 23.5552 4.2929 24.213 4.95054L26.1865 6.92344C26.8443 7.58107 27.831 6.59462 27.1732 5.93699ZM25.1997 22.2981L27.1732 20.3252C27.831 19.6675 26.8443 18.6811 26.1865 19.3387L24.213 21.3116C23.5552 21.9692 24.5419 22.9557 25.1997 22.2981ZM41.247 6.92344L43.2205 4.95054C43.8783 4.2929 42.8916 3.30645 42.2338 3.96408L40.2603 5.93699C39.6025 6.59462 40.5892 7.58107 41.247 6.92344ZM22.2046 13.8286H24.9954C25.9257 13.8286 25.9257 12.4335 24.9954 12.4335H22.2046C21.2743 12.4335 21.2743 13.8286 22.2046 13.8286ZM43.1358 13.8286H45.9267C46.8569 13.8286 46.8569 12.4335 45.9267 12.4335H43.1358C42.2055 12.4335 42.2055 13.8286 43.1358 13.8286ZM29.1816 13.1311C29.1816 15.8277 31.3683 18.0138 34.0656 18.0138C36.7629 18.0138 38.9496 15.8277 38.9496 13.1311C38.9496 10.4344 36.7629 8.24839 34.0656 8.24839C31.3683 8.24839 29.1816 10.4344 29.1816 13.1311ZM37.5541 13.1311C37.5541 15.0572 35.9923 16.6187 34.0656 16.6187C32.1389 16.6187 30.5771 15.0572 30.5771 13.1311C30.5771 11.2049 32.1389 9.64344 34.0656 9.64344C35.9923 9.64344 37.5541 11.2049 37.5541 13.1311ZM42.1763 26.5369C41.8754 26.2963 41.4363 26.345 41.1956 26.6458C41.0872 26.7813 40.9426 27.0021 40.8013 27.2964C40.2305 28.4853 40.2305 29.799 41.1956 31.005C41.781 31.7365 41.781 32.4896 41.4215 33.2383C41.3302 33.4284 41.2422 33.5628 41.1956 33.6211C40.9549 33.9219 41.0036 34.3609 41.3045 34.6015C41.6054 34.8422 42.0445 34.7934 42.2852 34.4926C42.3936 34.3571 42.5382 34.1363 42.6795 33.842C43.2503 32.6532 43.2503 31.3395 42.2852 30.1335C41.6998 29.4019 41.6998 28.6489 42.0593 27.9001C42.1506 27.71 42.2386 27.5756 42.2852 27.5173C42.5259 27.2165 42.4771 26.7776 42.1763 26.5369ZM34.0656 0.575608C33.6803 0.575608 33.3679 0.887901 33.3679 1.27313V4.06324C33.3679 4.44847 33.6803 4.76076 34.0656 4.76076C34.4509 4.76076 34.7633 4.44847 34.7633 4.06324V1.27313C34.7633 0.887901 34.4509 0.575608 34.0656 0.575608ZM34.0656 21.5014C33.6803 21.5014 33.3679 21.8137 33.3679 22.1989V24.989C33.3679 25.3742 33.6803 25.6865 34.0656 25.6865C34.4509 25.6865 34.7633 25.3742 34.7633 24.989V22.1989C34.7633 21.8137 34.4509 21.5014 34.0656 21.5014Z" fill="black"/>
<path d="M46.6238 37.9902C46.6238 38.6201 46.4997 39.2439 46.2586 39.8259C46.0176 40.4078 45.6643 40.9366 45.2188 41.382C44.7734 41.8275 44.2446 42.1808 43.6627 42.4218C43.0807 42.6629 42.4569 42.787 41.827 42.787C41.1971 42.787 40.5734 42.6629 39.9914 42.4218C39.4094 42.1808 38.8806 41.8275 38.4352 41.382C37.9898 40.9366 37.6365 40.4078 37.3954 39.8259C37.1543 39.2439 37.0303 38.6201 37.0303 37.9902L41.827 37.9902H46.6238Z" fill="black"/>
</svg>
