<svg width="24" height="24" viewBox="0 0 24 24" fill="none" xmlns="http://www.w3.org/2000/svg">
<path d="M10.5432 4.60559L10.4599 4.52905L10.55 4.43893L10.61 4.49891C11.0373 4.98829 11.225 5.47713 11.225 6.0002C11.225 6.49215 11.0385 6.97377 10.6028 7.45981L10.5289 7.54032L10.4599 7.47134L10.5432 7.3948L10.554 7.38491L10.5644 7.37456C10.9385 7.00042 11.095 6.512 11.095 6.0002C11.095 5.48839 10.9385 4.99997 10.5644 4.62583L10.554 4.61548L10.5432 4.60559ZM15.5642 3.67766L15.5498 3.66127L15.5344 3.64583L14.4187 2.5302L14.53 2.41893L15.632 3.52096C16.0519 3.99364 16.235 4.48972 16.235 5.0002C16.235 5.50798 16.0539 5.99446 15.6326 6.46874L12.5203 9.56391L12.4467 9.48443L15.5367 6.34227C15.9056 5.97191 16.065 5.47697 16.065 5.0002C16.065 4.50193 15.8932 4.05147 15.5642 3.67766ZM14.4373 11.4808L19.551 6.35791C20.0335 5.92899 20.5116 5.7452 21 5.7452C21.5229 5.7452 22.0163 5.93273 22.4888 6.34891L22.5919 6.46128L22.4884 6.56985L22.3744 6.45583C22.0046 6.08601 21.5336 5.8752 21 5.8752C20.4668 5.8752 19.996 6.08575 19.6263 6.45514C19.6261 6.45537 19.6259 6.4556 19.6256 6.45583L14.5126 11.5505L14.4373 11.4808ZM14.7502 16.7192L3.13147 20.8687L7.28103 9.24996L14.7502 16.7192ZM16.4387 13.4502L17.5287 12.3602C18.0221 11.9292 18.5015 11.7452 19 11.7452C19.5034 11.7452 19.9995 11.9329 20.4762 12.3555L21.5826 13.4896L21.5001 13.5705L20.3619 12.4533C19.9946 12.0873 19.5253 11.8752 19 11.8752C18.4616 11.8752 18.0139 12.0976 17.6556 12.4558L16.55 13.5615L16.4387 13.4502Z" stroke="#444444" stroke-width="1.37"/>
</svg>
