<svg width="24" height="24" viewBox="0 0 24 24" fill="none" xmlns="http://www.w3.org/2000/svg">
<g clip-path="url(#clip0)">
<path d="M10.5432 4.60461L10.4599 4.52808L10.55 4.43796L10.61 4.49793C11.0373 4.98731 11.225 5.47615 11.225 5.99922C11.225 6.49118 11.0385 6.9728 10.6028 7.45883L10.5289 7.53934L10.4599 7.47036L10.5432 7.39383L10.554 7.38393L10.5644 7.37359C10.9385 6.99944 11.095 6.51103 11.095 5.99922C11.095 5.48741 10.9385 4.99899 10.5644 4.62485L10.554 4.61451L10.5432 4.60461ZM15.5642 3.67669L15.5498 3.66029L15.5344 3.64485L14.4187 2.52922L14.53 2.41796L15.632 3.51999C16.0519 3.99266 16.235 4.48874 16.235 4.99922C16.235 5.507 16.0539 5.99348 15.6326 6.46776L12.5203 9.56294L12.4467 9.48345L15.5367 6.34129C15.9056 5.97094 16.065 5.476 16.065 4.99922C16.065 4.50096 15.8932 4.05049 15.5642 3.67669ZM14.4373 11.4798L19.551 6.35694C20.0335 5.92801 20.5116 5.74422 21 5.74422C21.5229 5.74422 22.0163 5.93175 22.4888 6.34793L22.5919 6.4603L22.4884 6.56887L22.3744 6.45485C22.0046 6.08504 21.5336 5.87422 21 5.87422C20.4668 5.87422 19.996 6.08478 19.6263 6.45416C19.6261 6.45439 19.6259 6.45462 19.6256 6.45485L14.5126 11.5496L14.4373 11.4798ZM14.7502 16.7182L3.13147 20.8677L7.28103 9.24899L14.7502 16.7182ZM16.4387 13.4492L17.5287 12.3592C18.0221 11.9283 18.5015 11.7442 19 11.7442C19.5034 11.7442 19.9995 11.9319 20.4762 12.3545L21.5826 13.4886L21.5001 13.5695L20.3619 12.4524C19.9946 12.0863 19.5253 11.8742 19 11.8742C18.4616 11.8742 18.0139 12.0966 17.6556 12.4549L16.55 13.5605L16.4387 13.4492Z" stroke="#444444" stroke-width="1.37"/>
<path fill-rule="evenodd" clip-rule="evenodd" d="M12 22.63C17.8708 22.63 22.63 17.8708 22.63 12C22.63 6.12921 17.8708 1.37 12 1.37C6.12921 1.37 1.37 6.12921 1.37 12C1.37 17.8708 6.12921 22.63 12 22.63ZM12 24C18.6274 24 24 18.6274 24 12C24 5.37258 18.6274 0 12 0C5.37258 0 0 5.37258 0 12C0 18.6274 5.37258 24 12 24Z" fill="#FF4747"/>
<path d="M0.685317 -0.282843L-0.282843 0.685317L-0.266702 0.701458L-0.278231 0.712619L-0.570497 0.99558L-0.28265 1.28304L22.7487 24.283L23.0316 24.5656L23.3143 24.2828L24.2824 23.3141L24.5651 23.0313L24.2824 22.7485L1.28284 -0.251003L1.00454 -0.529307L0.721769 -0.255541L0.71712 -0.25104L0.685317 -0.282843Z" fill="#FF4747" stroke="white" stroke-width="0.8"/>
</g>
<defs>
<clipPath id="clip0">
<rect width="24" height="24" fill="white"/>
</clipPath>
</defs>
</svg>
