<svg width="24" height="24" viewBox="0 0 24 24" fill="none" xmlns="http://www.w3.org/2000/svg">
<path fill-rule="evenodd" clip-rule="evenodd" d="M6.31968 17.9644H14.7629L15.4867 23.5242H18.709V9.78855L22.6234 9.95367L24 6.95271L19.5014 4.16967L18.3475 1.28151L17.4542 2.95383L16.465 0.475586L11.2406 10.6237H4.7184L0 6.22887L2.3736 13.3549V23.5242H5.59584L6.31968 17.9644ZM4.17936 11.9937H12.0763L16.3075 3.77463L17.2747 6.19767L18.168 4.52487L18.3965 5.09751L22.2504 7.48167L21.7618 8.54679L17.339 8.36007V22.1548H16.6896L15.9658 16.5949H5.1168L4.39248 22.1548H3.74304V13.1332L2.99664 10.8921L4.17936 11.9937Z" fill="#444444"/>
<path fill-rule="evenodd" clip-rule="evenodd" d="M12 22.63C17.8708 22.63 22.63 17.8708 22.63 12C22.63 6.12921 17.8708 1.37 12 1.37C6.12921 1.37 1.37 6.12921 1.37 12C1.37 17.8708 6.12921 22.63 12 22.63ZM12 24C18.6274 24 24 18.6274 24 12C24 5.37258 18.6274 0 12 0C5.37258 0 0 5.37258 0 12C0 18.6274 5.37258 24 12 24Z" fill="#FF4747"/>
<path d="M23.9995 23.0314L23.0314 24L0 1L1 0.0318394L23.9995 23.0314Z" fill="#FF4747"/>
</svg>