<svg width="29" height="36" viewBox="0 0 29 36" fill="none" xmlns="http://www.w3.org/2000/svg">
<g clip-path="url(#clip0)">
<path d="M14.5 28.4944C22.5081 28.4944 29 22.1984 29 14.4319C29 6.66538 22.5081 0.369385 14.5 0.369385C6.49187 0.369385 0 6.66538 0 14.4319C0 22.1984 6.49187 28.4944 14.5 28.4944Z" fill="#FF7E47"/>
<path d="M14.5004 18C16.5323 18 18.1795 16.4025 18.1795 14.4319C18.1795 12.4613 16.5323 10.8638 14.5004 10.8638C12.4685 10.8638 10.8213 12.4613 10.8213 14.4319C10.8213 16.4025 12.4685 18 14.5004 18Z" fill="white"/>
<path d="M14.2826 35.6305L7.91016 24.9263H20.6549L14.2826 35.6305Z" fill="#FF7E47"/>
<path d="M18.9294 27.8259C24.7709 26.0103 28.9995 20.7 28.9995 14.4318C28.9995 6.68353 22.5381 0.398871 14.5559 0.369385H14.4432C14.3897 0.369582 14.3364 0.370059 14.2832 0.370815V35.6304V35.6305L18.9294 27.8259Z" fill="black" fill-opacity="0.1"/>
</g>
<defs>
<clipPath id="clip0">
<rect width="29" height="36" fill="white"/>
</clipPath>
</defs>
</svg>
