<svg width="47" height="47" viewBox="0 0 47 47" fill="none" xmlns="http://www.w3.org/2000/svg">
<path d="M18.764 1.01205C28.1943 1.25696 36.155 8.72667 37.3798 18.0332C37.8696 21.7068 37.1348 25.6254 35.2977 28.9316L46.2451 40.1975L40 46.5L28.9292 35.2993C25.6224 37.1361 21.7033 37.8708 18.0291 37.381C8.72125 36.1565 1.25045 28.1969 1.0055 18.7679C0.76056 8.72667 8.72125 0.644684 18.764 1.01205ZM17.6617 34.687L34.6854 17.6658C33.3382 10.0737 26.6022 3.95095 18.764 3.70604C10.1909 3.46113 3.45495 10.1961 3.69989 18.7679C3.94484 26.605 10.0684 33.34 17.6617 34.687ZM34.8078 21.3395L21.3359 34.8095C22.5617 35.7407 28.9795 33.3831 30 32.5L40.1966 42.769L42.7685 40.1975L32.5 30C33.181 28.6736 35.8897 21.4464 34.8078 21.3395Z" fill="black"/>
<path fill-rule="evenodd" clip-rule="evenodd" d="M28.929 35.2993C25.6222 37.1361 21.7031 37.8709 18.0289 37.3811C8.72105 36.1565 1.25025 28.197 1.0053 18.768C0.760357 8.72673 8.72105 0.644738 18.7638 1.0121C28.1941 1.25701 36.1548 8.72673 37.3796 18.0333C37.8694 21.7069 37.1346 25.6254 35.2975 28.9317L46.2449 40.1975L39.9998 46.5001L28.929 35.2993ZM35.5441 28.8984L46.5251 40.1989L39.9996 46.7844L28.8929 35.5474C25.5771 37.3512 21.6705 38.0682 18.0028 37.5793C8.60151 36.3425 1.05297 28.3046 0.805368 18.7732C0.557702 8.62034 8.60938 0.441108 18.77 0.812196C28.3023 1.0603 36.3409 8.60749 37.5778 18.0072C38.0669 21.6753 37.3493 25.5825 35.5441 28.8984ZM30.0101 32.2266L40.1969 42.4857L42.485 40.198L32.2551 30.0389L32.3219 29.9087C32.6548 29.2602 33.4983 27.1342 34.124 25.1523C34.4368 24.1617 34.6916 23.2183 34.8016 22.5202C34.8571 22.1683 34.8729 21.8953 34.8488 21.7145C34.8425 21.6675 34.8341 21.6316 34.8253 21.6047L21.6748 34.7533C21.7714 34.7822 21.8905 34.8033 22.0336 34.8145C22.3093 34.8359 22.6495 34.8184 23.037 34.7674C23.8114 34.6656 24.7485 34.4341 25.6856 34.1441C26.6216 33.8544 27.551 33.5085 28.3085 33.1808C29.0755 32.849 29.6403 32.5467 29.8689 32.3488L30.0101 32.2266ZM21.5178 34.9102C21.4484 34.8823 21.3874 34.8488 21.3357 34.8095L34.8076 21.3395C35.8895 21.4464 33.1808 28.6736 32.4998 30.0001L42.7683 40.1975L40.1964 42.7691L29.9998 32.5001C29.0224 33.3458 23.0936 35.5443 21.5178 34.9102ZM34.6852 17.6659C33.338 10.0737 26.602 3.95101 18.7638 3.7061C10.1907 3.46119 3.45475 10.1962 3.69969 18.768C3.94463 26.6051 10.0682 33.3401 17.6615 34.6871L34.6852 17.6659ZM17.5941 34.4716C10.1374 33.0983 4.14052 26.4651 3.8996 18.7621C3.65806 10.3054 10.2998 3.66454 18.7578 3.90601C26.462 4.14685 33.0962 10.1429 34.4697 17.5985L17.5941 34.4716Z" fill="black"/>
<path fill-rule="evenodd" clip-rule="evenodd" d="M17 16.173C17 19.029 19.3159 21.345 22.1721 21.345C25.0291 21.345 27.345 19.029 27.345 16.173C27.345 13.316 25.0291 11 22.1721 11C19.3159 11 17 13.317 17 16.173ZM24.5049 16.1729C24.5049 17.4609 23.4597 18.5049 22.1719 18.5049C20.8848 18.5049 19.8408 17.4609 19.8408 16.1729C19.8408 14.8859 20.8848 13.8409 22.1719 13.8409C23.4597 13.8409 24.5049 14.884 24.5049 16.1729Z" fill="black"/>
</svg>
