<svg width="43" height="51" viewBox="0 0 43 51" fill="none" xmlns="http://www.w3.org/2000/svg">
<path fill-rule="evenodd" clip-rule="evenodd" d="M33.4601 18.2614L19.2232 31.9508L10.5098 23.2374L12.9846 20.7625L19.2712 27.0491L31.0343 15.7385L33.4601 18.2614Z" fill="black"/>
<path fill-rule="evenodd" clip-rule="evenodd" d="M41.7471 5.61468L21.2471 0L0.747161 5.61468C0.747161 5.61468 -3.37557 31.2226 7.74768 42C13.8217 47.8851 21.2471 51 21.2471 51C21.2471 51 27.6728 47.8851 33.7468 42C44.8701 31.2226 41.7471 5.61468 41.7471 5.61468ZM21.1431 47.1988C21.7411 46.8596 22.5059 46.4069 23.3862 45.8434C25.6188 44.4142 28.5501 42.301 31.3809 39.5582C35.9836 35.0986 37.9282 27.1309 38.5286 19.4992C38.8195 15.8023 38.7793 12.4116 38.6649 9.94161C38.6361 9.32069 38.6028 8.75999 38.5691 8.26949L21.2471 3.52522L3.83308 8.2947C3.77796 8.80794 3.72007 9.40205 3.66519 10.0649C3.46089 12.5325 3.30125 15.9182 3.47254 19.6082C3.82675 27.2385 5.55706 35.1433 10.1136 39.5582C12.8861 42.2445 16.01 44.3352 18.4787 45.7645C19.5282 46.3721 20.4441 46.8515 21.1431 47.1988Z" fill="black"/>
</svg>
