<svg width="50" height="36" viewBox="0 0 50 36" fill="none" xmlns="http://www.w3.org/2000/svg">
<path fill-rule="evenodd" clip-rule="evenodd" d="M12.898 6.16799L10.024 12.757L2.911 14.334L2.784 13.761L12.898 6.16799ZM16.334 4.53799L21.752 10.157L13.041 12.088L16.334 4.53799ZM24.612 9.52199L19.63 4.35599L32.438 6.97999L32.609 7.74899L24.612 9.52199ZM31.86 28.287L27.205 20.742L24.798 22.228L29.421 29.721L25.976 35.01H29.353L31.892 31.114L44.082 31.115L46.625 35.01H50L47.46 31.114H49.534V28.286L31.86 28.287ZM34.524 4.85799L15.637 0.98999L0 12.73L1.015 17.309L16.927 13.781L21.657 35.01H24.554L19.688 13.17L35.585 9.64499L34.524 4.85799Z" fill="black"/>
</svg>
