<svg width="24" height="24" viewBox="0 0 24 24" fill="none" xmlns="http://www.w3.org/2000/svg">
<path fill-rule="evenodd" clip-rule="evenodd" d="M14.6462 6.5832C15.6946 7.03728 16.8106 7.05504 17.9314 7.06224C18.8299 7.068 20.0515 7.04784 20.881 7.42176C22.4664 8.13696 22.6066 10.6762 22.6306 12.1368H24C23.8963 5.73168 20.9218 5.712 17.9405 5.6928C15.6946 5.67888 13.4419 5.66304 13.0882 1.28256H11.7187L11.735 1.52688C11.9213 3.59472 12.5856 5.69088 14.6462 6.5832ZM21.8189 13.0757H14.9515L16.3205 14.4451H20.4494V15.3442H17.22L18.5894 16.7141H21.8189V13.0757ZM23.9995 23.0314L0.96816 0L0 0.96816L23.0314 24L23.9995 23.0314ZM12.5683 14.4451L11.1989 13.0757H0.00048V16.7141H14.8373L13.4674 15.3442H1.36992V14.4451H12.5683ZM22.6301 13.0757V16.7146H24L23.9995 13.0757H22.6301ZM15.431 9.1296C16.5533 9.13392 18.5429 9.08064 19.4971 9.73872C20.2632 10.2667 20.4178 11.2781 20.4494 12.1363H21.8189C21.659 7.7856 18.6312 7.77216 15.4363 7.75968C13.1146 7.75056 10.7875 7.74096 10.1918 5.4504H8.77776L8.86608 5.79504C9.68256 8.98608 12.7258 9.11904 15.431 9.1296Z" fill="#444444"/>
<path d="M23.9995 23.0314L23.0314 24L0 1L1 0.0318394L23.9995 23.0314Z" fill="#FF4747"/>
<path fill-rule="evenodd" clip-rule="evenodd" d="M12 22.63C17.8708 22.63 22.63 17.8708 22.63 12C22.63 6.12921 17.8708 1.37 12 1.37C6.12921 1.37 1.37 6.12921 1.37 12C1.37 17.8708 6.12921 22.63 12 22.63ZM12 24C18.6274 24 24 18.6274 24 12C24 5.37258 18.6274 0 12 0C5.37258 0 0 5.37258 0 12C0 18.6274 5.37258 24 12 24Z" fill="#FF4747"/>
</svg>
