<svg width="24" height="24" viewBox="0 0 24 24" fill="none" xmlns="http://www.w3.org/2000/svg">
<path d="M22.4998 8.01004L20.9998 3.51004C20.9476 3.35481 20.8461 3.22092 20.7106 3.12883C20.5752 3.03674 20.4134 2.99151 20.2498 3.00004H3.7498C3.58625 2.99151 3.42441 3.03674 3.28898 3.12883C3.15355 3.22092 3.05199 3.35481 2.9998 3.51004L1.4998 8.01004C1.489 8.08968 1.489 8.17041 1.4998 8.25004V12.75C1.4998 12.949 1.57882 13.1397 1.71947 13.2804C1.86013 13.421 2.05089 13.5 2.2498 13.5H2.9998V21H4.4998V13.5H8.9998V21H20.9998V13.5H21.7498C21.9487 13.5 22.1395 13.421 22.2801 13.2804C22.4208 13.1397 22.4998 12.949 22.4998 12.75V8.25004C22.5106 8.17041 22.5106 8.08968 22.4998 8.01004ZM19.4998 19.5H10.4998V13.5H19.4998V19.5ZM20.9998 12H17.9998V9.00004H16.4998V12H12.7498V9.00004H11.2498V12H7.4998V9.00004H5.9998V12H2.9998V8.37004L4.2898 4.50004H19.7098L20.9998 8.37004V12Z" fill="#444444"/>
</svg>
