<svg width="24" height="24" viewBox="0 0 24 24" fill="none" xmlns="http://www.w3.org/2000/svg">
<path fill-rule="evenodd" clip-rule="evenodd" d="M9.25996 15.769C10.2569 15.769 11.2284 15.3562 11.8865 14.6035C12.5451 15.3557 13.5142 15.769 14.5121 15.769C15.4712 15.769 16.3995 15.3902 17.0585 14.6918C17.816 15.625 19.0697 16.0728 20.2539 15.9115L20.0931 14.712C19.0956 14.8483 18.0142 14.3371 17.6777 13.3459L16.5478 13.3008C16.2032 14.1 15.3632 14.5555 14.5126 14.5555C13.6385 14.5555 12.7745 14.0755 12.451 13.2384H11.3235C10.9995 14.076 10.1355 14.5555 9.26044 14.5555C8.38636 14.5555 7.52237 14.0755 7.19885 13.2384H6.07085C5.72429 14.135 4.7638 14.617 3.83213 14.5502L3.74717 15.7589C4.82429 15.8362 5.92157 15.421 6.63629 14.6045C7.29437 15.3566 8.26301 15.769 9.25996 15.769ZM23.6441 9.54384H0.356445V24H23.6446V9.54384H23.6441ZM22.2689 22.6248H1.73165V10.9186H22.2694V22.6248H22.2689ZM9.45724 8.19936H14.6019V8.9016H15.9771V2.70576L17.7099 0.97248L16.7379 0L14.6019 2.136V4.10496H9.45724V2.70576L11.191 0.97248L10.2185 0L8.08252 2.136V8.9016H9.45724V8.19936ZM9.45724 5.48016H14.6019V6.82464H9.45724V5.48016ZM9.25996 20.1302C10.2574 20.1302 11.228 19.717 11.8865 18.9643C12.5446 19.7165 13.5147 20.1302 14.5121 20.1302C15.475 20.1302 16.4 19.7486 17.0585 19.0512C17.3139 19.3661 17.6264 19.6267 17.9748 19.8274C18.6502 20.2171 19.4638 20.3803 20.2539 20.2723L20.0926 19.0728C19.5646 19.1453 19.0236 19.0373 18.5768 18.78C18.1664 18.5438 17.8376 18.1776 17.6772 17.7072L16.5473 17.6621C16.2027 18.4642 15.3641 18.9168 14.5121 18.9168C13.6385 18.9168 12.7736 18.4363 12.4505 17.5997H11.323C10.999 18.4368 10.1345 18.9168 9.25996 18.9168C8.38589 18.9168 7.52189 18.4363 7.19837 17.5997H6.07037C5.72381 18.4963 4.76285 18.9782 3.83165 18.9115L3.74669 20.1202C4.82237 20.1974 5.92253 19.7818 6.63581 18.9662C7.29437 19.7179 8.26301 20.1302 9.25996 20.1302Z" fill="#444444"/>
</svg>
