<svg width="24" height="24" viewBox="0 0 24 24" fill="none" xmlns="http://www.w3.org/2000/svg">
<path fill-rule="evenodd" clip-rule="evenodd" d="M1.58496 14.0058H22.416V15.2653H1.58496V14.0058ZM3.88464 7.6247V12.6172H1.58496V7.6247H3.88464ZM7.57344 7.6247V12.6172H5.27328V7.6247H7.57344ZM11.3059 7.6247V12.6172H8.96256V7.6247H11.3059ZM12.6946 7.6247H14.9515V12.6172H12.6946V7.6247ZM19.9867 12.6172V7.6247H22.4155V12.6172H19.9867ZM16.3406 12.6172V7.6247H18.5976V12.6172H16.3406ZM22.4155 6.23558H1.58496V5.02886H1.77984V3.24902H0V5.02886H0.19584V18.7511H1.58496V16.654H22.416V18.7511H23.8051V5.02886H24V3.24902H22.2206V5.02886H22.416V6.23558H22.4155Z" fill="#444444"/>
</svg>
