<svg width="15" height="10" viewBox="0 0 15 10" fill="none" xmlns="http://www.w3.org/2000/svg">
<path d="M15 0.00012207H0V10H15V0.00012207Z" fill="#F0F0F0"/>
<path d="M8.43748 0H6.56248V4.0624H0V5.93736H6.56248V9.99976H8.43748V5.93736H15V4.0624H8.43748V0Z" fill="#D80027"/>
<path d="M11.5371 6.73901L15.0004 8.66308V6.73901H11.5371Z" fill="#0052B4"/>
<path d="M9.13086 6.73901L15.0004 9.99981V9.07774L10.7907 6.73901H9.13086Z" fill="#0052B4"/>
<path d="M13.437 9.99976L9.13086 7.6073V9.99976H13.437Z" fill="#0052B4"/>
<path d="M9.13086 6.73901L15.0004 9.99981V9.07774L10.7907 6.73901H9.13086Z" fill="#F0F0F0"/>
<path d="M9.13086 6.73901L15.0004 9.99981V9.07774L10.7907 6.73901H9.13086Z" fill="#D80027"/>
<path d="M2.6467 6.73889L0 8.20927V6.73889H2.6467Z" fill="#0052B4"/>
<path d="M5.86982 7.15356V9.99973H0.74707L5.86982 7.15356Z" fill="#0052B4"/>
<path d="M4.20974 6.73901L0 9.07774V9.99981L5.86955 6.73901H4.20974Z" fill="#D80027"/>
<path d="M3.46332 3.26085L0 1.33679V3.26085H3.46332Z" fill="#0052B4"/>
<path d="M5.86955 3.26079L0 0V0.922072L4.20974 3.26079H5.86955Z" fill="#0052B4"/>
<path d="M1.56348 0L5.86958 2.39245V0H1.56348Z" fill="#0052B4"/>
<path d="M5.86955 3.26079L0 0V0.922072L4.20974 3.26079H5.86955Z" fill="#F0F0F0"/>
<path d="M5.86955 3.26079L0 0V0.922072L4.20974 3.26079H5.86955Z" fill="#D80027"/>
<path d="M12.3535 3.26079L15.0002 1.79041V3.26079H12.3535Z" fill="#0052B4"/>
<path d="M9.13086 2.84653V0.000366211H14.2536L9.13086 2.84653Z" fill="#0052B4"/>
<path d="M10.7907 3.26079L15.0004 0.922072V0L9.13086 3.26079H10.7907Z" fill="#D80027"/>
</svg>
