<svg width="15" height="10" viewBox="0 0 15 10" fill="none" xmlns="http://www.w3.org/2000/svg">
<path d="M15 3.33335H0V0.263169C0 0.117842 0.11581 0 0.258632 0H14.7414C14.8842 0 15 0.117842 15 0.263169L15 3.33335Z" fill="#82AFFF"/>
<path d="M14.7413 9.99995H0.258632C0.11581 9.99995 0 9.88211 0 9.73678V6.66663H15V9.73678C15 9.88214 14.8842 9.99995 14.7413 9.99995Z" fill="#73AF00"/>
<path d="M15 3.33325H0V6.6664H15V3.33325Z" fill="#F5F5F5"/>
<path d="M15 3.03723H0V3.45285H15V3.03723Z" fill="#FF4B55"/>
<path d="M15 6.54688H0V6.9625H15V6.54688Z" fill="#FF4B55"/>
<path d="M3.32493 2.49807C2.79547 2.49807 2.3663 2.06242 2.3663 1.52562C2.3663 0.986845 2.79545 0.549223 3.32493 0.549223C3.32698 0.549223 3.32897 0.549223 3.33096 0.549253C3.36213 0.54967 3.37306 0.507547 3.34558 0.492553C3.18254 0.403627 2.99648 0.353307 2.79867 0.354767C2.16515 0.359358 1.65055 0.893537 1.65729 1.53817C1.66391 2.17615 2.17649 2.69256 2.80696 2.69256C3.00205 2.69256 3.1855 2.64233 3.34652 2.55462C3.37391 2.53969 3.36284 2.49757 3.33178 2.49801C3.32944 2.49807 3.32718 2.49807 3.32493 2.49807Z" fill="#F5F5F5"/>
<path d="M4.07613 2.22911L4.03333 2.35974L3.89801 2.36078C3.88049 2.3609 3.87323 2.38368 3.88732 2.39426L3.99618 2.47606L3.95534 2.60735C3.95007 2.62434 3.96908 2.63841 3.98335 2.62804L4.09345 2.54796L4.20354 2.62804C4.21781 2.63841 4.2368 2.62434 4.23155 2.60735L4.19071 2.47606L4.29955 2.39426C4.31364 2.38368 4.30638 2.3609 4.28886 2.36078L4.15354 2.35974L4.11073 2.22911C4.1052 2.2122 4.0817 2.2122 4.07613 2.22911Z" fill="#F5F5F5"/>
<path d="M5.02828 2.22911L4.98548 2.35974L4.85016 2.36078C4.83264 2.3609 4.82537 2.38368 4.83947 2.39426L4.9483 2.47606L4.90746 2.60735C4.90219 2.62434 4.9212 2.63841 4.93547 2.62804L5.04557 2.54796L5.15566 2.62804C5.16993 2.63841 5.18891 2.62434 5.18367 2.60735L5.14283 2.47606L5.25167 2.39426C5.26576 2.38368 5.25849 2.3609 5.24097 2.36078L5.10565 2.35974L5.06285 2.22911C5.05731 2.2122 5.03379 2.2122 5.02828 2.22911Z" fill="#F5F5F5"/>
<path d="M5.98238 2.22911L5.93958 2.35974L5.80426 2.36078C5.78674 2.3609 5.77948 2.38368 5.79357 2.39426L5.90243 2.47606L5.86159 2.60735C5.85632 2.62434 5.87533 2.63841 5.8896 2.62804L5.9997 2.54796L6.1098 2.62804C6.12406 2.63841 6.14305 2.62434 6.1378 2.60735L6.09696 2.47606L6.2058 2.39426C6.21989 2.38368 6.21263 2.3609 6.19511 2.36078L6.05979 2.35974L6.01698 2.22911C6.01145 2.2122 5.98792 2.2122 5.98238 2.22911Z" fill="#F5F5F5"/>
<path d="M6.93551 2.22911L6.89271 2.35974L6.75739 2.36078C6.73987 2.3609 6.7326 2.38368 6.74669 2.39426L6.85553 2.47606L6.81469 2.60735C6.80942 2.62434 6.82843 2.63841 6.8427 2.62804L6.9528 2.54796L7.06289 2.62804C7.07716 2.63841 7.09615 2.62434 7.0909 2.60735L7.05006 2.47606L7.1589 2.39426C7.17299 2.38368 7.16572 2.3609 7.14821 2.36078L7.01288 2.35974L6.97008 2.22911C6.96457 2.2122 6.94105 2.2122 6.93551 2.22911Z" fill="#F5F5F5"/>
<path d="M7.88962 2.22911L7.84681 2.35974L7.71149 2.36078C7.69397 2.3609 7.6867 2.38368 7.70079 2.39426L7.80966 2.47606L7.76882 2.60735C7.76355 2.62434 7.78256 2.63841 7.79683 2.62804L7.90693 2.54796L8.01703 2.62804C8.0313 2.63841 8.05028 2.62434 8.04504 2.60735L8.0042 2.47606L8.11307 2.39426C8.12716 2.38368 8.11989 2.3609 8.10237 2.36078L7.96705 2.35974L7.92424 2.22911C7.91865 2.2122 7.89515 2.2122 7.88962 2.22911Z" fill="#F5F5F5"/>
<path d="M5.02828 1.32376L4.98548 1.45439L4.85016 1.45543C4.83264 1.45555 4.82537 1.47833 4.83947 1.48891L4.9483 1.57071L4.90746 1.702C4.90219 1.71899 4.9212 1.73306 4.93547 1.72269L5.04557 1.64261L5.15566 1.72269C5.16993 1.73306 5.18891 1.71899 5.18367 1.702L5.14283 1.57071L5.25167 1.48891C5.26576 1.47833 5.25849 1.45555 5.24097 1.45543L5.10565 1.45439L5.06285 1.32376C5.05731 1.30679 5.03379 1.30679 5.02828 1.32376Z" fill="#F5F5F5"/>
<path d="M5.98238 1.32376L5.93958 1.45439L5.80426 1.45543C5.78674 1.45555 5.77948 1.47833 5.79357 1.48891L5.90243 1.57071L5.86159 1.702C5.85632 1.71899 5.87533 1.73306 5.8896 1.72269L5.9997 1.64261L6.1098 1.72269C6.12406 1.73306 6.14305 1.71899 6.1378 1.702L6.09696 1.57071L6.2058 1.48891C6.21989 1.47833 6.21263 1.45555 6.19511 1.45543L6.05979 1.45439L6.01698 1.32376C6.01145 1.30679 5.98792 1.30679 5.98238 1.32376Z" fill="#F5F5F5"/>
<path d="M6.93551 1.32376L6.89271 1.45439L6.75739 1.45543C6.73987 1.45555 6.7326 1.47833 6.74669 1.48891L6.85553 1.57071L6.81469 1.702C6.80942 1.71899 6.82843 1.73306 6.8427 1.72269L6.9528 1.64261L7.06289 1.72269C7.07716 1.73306 7.09615 1.71899 7.0909 1.702L7.05006 1.57071L7.1589 1.48891C7.17299 1.47833 7.16572 1.45555 7.14821 1.45543L7.01288 1.45439L6.97008 1.32376C6.96457 1.30679 6.94105 1.30679 6.93551 1.32376Z" fill="#F5F5F5"/>
<path d="M7.88962 1.32376L7.84681 1.45439L7.71149 1.45543C7.69397 1.45555 7.6867 1.47833 7.70079 1.48891L7.80966 1.57071L7.76882 1.702C7.76355 1.71899 7.78256 1.73306 7.79683 1.72269L7.90693 1.64261L8.01703 1.72269C8.0313 1.73306 8.05028 1.71899 8.04504 1.702L8.0042 1.57071L8.11307 1.48891C8.12716 1.47833 8.11989 1.45555 8.10237 1.45543L7.96705 1.45439L7.92424 1.32376C7.91865 1.30679 7.89515 1.30679 7.88962 1.32376Z" fill="#F5F5F5"/>
<path d="M5.98238 2.22911L5.93958 2.35974L5.80426 2.36078C5.78674 2.3609 5.77948 2.38368 5.79357 2.39426L5.90243 2.47606L5.86159 2.60735C5.85632 2.62434 5.87533 2.63841 5.8896 2.62804L5.9997 2.54796L6.1098 2.62804C6.12406 2.63841 6.14305 2.62434 6.1378 2.60735L6.09696 2.47606L6.2058 2.39426C6.21989 2.38368 6.21263 2.3609 6.19511 2.36078L6.05979 2.35974L6.01698 2.22911C6.01145 2.2122 5.98792 2.2122 5.98238 2.22911Z" fill="#F5F5F5"/>
<path d="M5.98238 0.418195L5.93958 0.548825L5.80426 0.549869C5.78674 0.549988 5.77948 0.572763 5.79357 0.583346L5.90243 0.665147L5.86159 0.796433C5.85632 0.813425 5.87533 0.827496 5.8896 0.817122L5.9997 0.73705L6.1098 0.817122C6.12406 0.827496 6.14305 0.813425 6.1378 0.796433L6.09696 0.665147L6.2058 0.583346C6.21989 0.572763 6.21263 0.549988 6.19511 0.549869L6.05979 0.548825L6.01698 0.418195C6.01145 0.401292 5.98792 0.401292 5.98238 0.418195Z" fill="#F5F5F5"/>
<path d="M6.93551 2.22911L6.89271 2.35974L6.75739 2.36078C6.73987 2.3609 6.7326 2.38368 6.74669 2.39426L6.85553 2.47606L6.81469 2.60735C6.80942 2.62434 6.82843 2.63841 6.8427 2.62804L6.9528 2.54796L7.06289 2.62804C7.07716 2.63841 7.09615 2.62434 7.0909 2.60735L7.05006 2.47606L7.1589 2.39426C7.17299 2.38368 7.16572 2.3609 7.14821 2.36078L7.01288 2.35974L6.97008 2.22911C6.96457 2.2122 6.94105 2.2122 6.93551 2.22911Z" fill="#F5F5F5"/>
<path d="M7.88962 2.22911L7.84681 2.35974L7.71149 2.36078C7.69397 2.3609 7.6867 2.38368 7.70079 2.39426L7.80966 2.47606L7.76882 2.60735C7.76355 2.62434 7.78256 2.63841 7.79683 2.62804L7.90693 2.54796L8.01703 2.62804C8.0313 2.63841 8.05028 2.62434 8.04504 2.60735L8.0042 2.47606L8.11307 2.39426C8.12716 2.38368 8.11989 2.3609 8.10237 2.36078L7.96705 2.35974L7.92424 2.22911C7.91865 2.2122 7.89515 2.2122 7.88962 2.22911Z" fill="#F5F5F5"/>
<path d="M6.93551 0.418195L6.89271 0.548825L6.75739 0.549869C6.73987 0.549988 6.7326 0.572763 6.74669 0.583346L6.85553 0.665147L6.81469 0.796433C6.80942 0.813425 6.82843 0.827496 6.8427 0.817122L6.9528 0.73705L7.06289 0.817122C7.07716 0.827496 7.09615 0.813425 7.0909 0.796433L7.05006 0.665147L7.1589 0.583346C7.17299 0.572763 7.16572 0.549988 7.14821 0.549869L7.01288 0.548825L6.97008 0.418195C6.96457 0.401292 6.94105 0.401292 6.93551 0.418195Z" fill="#F5F5F5"/>
<path d="M7.88962 0.418195L7.84681 0.548825L7.71149 0.549869C7.69397 0.549988 7.6867 0.572763 7.70079 0.583346L7.80966 0.665147L7.76882 0.796433C7.76355 0.813425 7.78256 0.827496 7.79683 0.817122L7.90693 0.73705L8.01703 0.817122C8.0313 0.827496 8.05028 0.813425 8.04504 0.796433L8.0042 0.665147L8.11307 0.583346C8.12716 0.572763 8.11989 0.549988 8.10237 0.549869L7.96705 0.548825L7.92424 0.418195C7.91865 0.401292 7.89515 0.401292 7.88962 0.418195Z" fill="#F5F5F5"/>
</svg>
