<svg width="42" height="50" viewBox="0 0 42 50" fill="none" xmlns="http://www.w3.org/2000/svg">
<path fill-rule="evenodd" clip-rule="evenodd" d="M34.782 36.417L37.479 37.946L32.818 46.164L30.121 44.635L34.782 36.417ZM22.854 4.169C22.015 4.056 21.174 3.992 20.327 3.992C19.481 3.992 18.641 4.056 17.803 4.169C18.367 3.33 19.315 2.823 20.33 2.823C21.345 2.823 22.288 3.331 22.854 4.169ZM15.185 23.993H25.854C25.646 24.412 25.512 24.854 25.409 25.302C25.213 26.149 25.06 27.024 24.874 27.878C24.469 29.744 24.055 30.937 22.463 30.032L17.519 27.156L15.185 23.993ZM10.292 24.023C11.559 24.145 12.181 24.656 13.081 25.884C16.945 31.158 15.167 29.117 21.075 32.477C25.359 34.914 26.812 31.6 27.574 28.599C27.799 27.713 28.012 26.121 28.348 25.388C28.536 24.978 28.829 24.659 29.336 24.554L29.334 24.803L29.274 26.812C29.134 30.421 27.119 33.32 31.49 36.516L28.514 41.762C25.815 40.135 23.157 38.493 20.388 36.985C17.959 35.662 15.921 34.552 14.733 32.882L10.01 26.253C9.36 25.34 9.155 24.749 9.221 24.394C9.318 23.876 9.896 23.986 10.292 24.023ZM7.811 13.016C14.112 4.802 26.549 4.803 32.85 13.017C34.617 15.321 35.764 18.124 36.037 21.171H4.622C4.895 18.125 6.044 15.321 7.811 13.016ZM14.336 9.314C10.802 10.919 8.046 13.882 6.684 17.515L6.396 18.29L8.472 19.032L8.751 18.285C9.901 15.212 12.257 12.685 15.245 11.329L16.252 10.875L15.344 8.86L14.336 9.314ZM14.538 4.923C10.946 6.108 7.83 8.364 5.572 11.307C3.439 14.088 2.07 17.485 1.79 21.171H0V23.993H6.391C6.266 25.045 6.631 26.361 7.717 27.885L12.44 34.515C14.004 36.71 16.304 37.963 19.045 39.455L27.119 44.227L26.287 45.694L33.877 50L41.314 36.886L33.722 32.58L32.893 34.043C32.001 33.443 31.314 32.582 31.799 29.304L32.102 26.69C32.26 25.614 32.231 24.716 32.06 23.992H40.658V21.17H38.867C38.587 17.485 37.219 14.089 35.086 11.307C32.829 8.365 29.714 6.109 26.122 4.922C25.663 2.104 23.192 0 20.329 0C17.465 0 15.001 2.106 14.538 4.923Z" fill="black"/>
</svg>
