<svg width="24" height="24" viewBox="0 0 24 24" fill="none" xmlns="http://www.w3.org/2000/svg">
<path fill-rule="evenodd" clip-rule="evenodd" d="M10.0109 16.5587C11.2728 15.9918 12.7267 15.9923 13.9886 16.5591L12 18.5478L10.0109 16.5587ZM12.001 13.3163C13.9339 13.3163 15.7286 14.0305 17.1542 15.3303L18.12 14.3641C16.4952 12.8089 14.2411 11.9487 12 11.9487C9.65712 11.9483 7.60752 12.8017 5.87664 14.3612L6.84096 15.3255C8.25312 14.0406 10.0896 13.3163 12.001 13.3163ZM12.0043 10.5131C14.7264 10.5131 17.1355 11.5215 19.1213 13.3633L20.0914 12.3932C17.8426 10.2966 15.085 9.14361 11.9971 9.14553C8.89728 9.14697 6.17136 10.2999 3.9096 12.3942L4.88016 13.3643C6.83136 11.5239 9.31632 10.5126 12.0043 10.5131ZM12.0048 7.70889C15.6283 7.70937 18.4522 9.01881 21.0998 11.3847L22.0618 10.4228C19.3291 7.78617 15.7987 6.34329 11.9971 6.35193C8.14464 6.36105 4.73376 7.80537 1.94448 10.4281L2.90832 11.3919C5.41152 9.01545 8.53584 7.70841 12.0048 7.70889ZM12.0038 4.88121C16.1549 4.88169 20.0981 6.51609 23.0338 9.45177L24 8.48457C20.8094 5.29401 16.5221 3.51705 12.0106 3.51465C7.66416 3.51177 3.31632 5.16825 0 8.48457L0.9672 9.45177C4.01472 6.40377 8.00976 4.88073 12.0038 4.88121ZM16.141 16.3436C13.7851 14.2383 10.2144 14.2374 7.85808 16.3431L12 20.4846L16.141 16.3436Z" fill="#444444"/>
</svg>
