<svg width="24" height="24" viewBox="0 0 24 24" fill="none" xmlns="http://www.w3.org/2000/svg">
<g clip-path="url(#clip0)">
<path fill-rule="evenodd" clip-rule="evenodd" d="M21.3235 4.81927L16.5067 1.79479C18.7646 0.550147 21.4809 2.23255 21.3235 4.81927ZM7.49323 1.79479L2.67643 4.81927C2.51899 2.23255 5.23531 0.550147 7.49323 1.79479ZM5.56603 5.38855C5.23915 5.64535 4.92763 5.92183 4.63339 6.21559C2.74891 8.10007 1.58203 10.7055 1.58203 13.5821C1.58203 16.4583 2.74891 19.0633 4.63339 20.9482C4.82059 21.1354 5.01547 21.3159 5.21659 21.4887L3.94603 23.9151H5.68219L6.62107 22.5053C8.19115 23.4538 10.0324 24.0001 11.9999 24.0001C13.9684 24.0001 15.8097 23.4533 17.3798 22.5049L18.3187 23.9156H20.0548L18.7838 21.4887C18.9849 21.3159 19.1793 21.1359 19.3665 20.9492C21.251 19.0637 22.4179 16.4593 22.4179 13.5831C22.4179 10.7065 21.251 8.10103 19.3665 6.21655C19.0728 5.92279 18.7612 5.64631 18.4334 5.38855L18.7785 4.83943L22.1433 6.95239C24.7199 1.53223 17.9332 -2.62073 14.2238 1.97815L17.6179 4.10983L17.302 4.61287C15.9225 3.79591 14.338 3.28807 12.6441 3.18487V2.44855H13.679V1.07335H10.3636V2.44855H11.3548V3.18487C9.66139 3.28807 8.07691 3.79639 6.69739 4.61335L6.38155 4.10983L9.77563 1.97815C6.06667 -2.62073 -0.720051 1.53223 1.85611 6.95191L5.22091 4.83895L5.56603 5.38855ZM11.3553 5.48071H12.6441V4.56247C14.8847 4.71991 16.8998 5.69431 18.394 7.18855C19.8883 8.68279 20.8622 10.6983 21.0201 12.9389H20.063V14.2282H21.0201C20.8622 16.4679 19.8883 18.4829 18.3945 19.9767C16.9003 21.4709 14.8852 22.4449 12.6451 22.6023V21.6241H11.3558V22.6023C9.11563 22.4444 7.10059 21.4709 5.60587 19.9767C4.11211 18.4825 3.13819 16.4679 2.98075 14.2277H3.87451V12.9385H2.98027C3.13771 10.6983 4.11211 8.68327 5.60587 7.18855C7.10059 5.69431 9.11515 4.72087 11.3553 4.56295V5.48071ZM11.147 13.813L15.4142 17.5781L16.1438 16.849L12.6974 13.1943L12.4487 7.71991H11.4302L11.147 13.813Z" fill="#444444"/>
</g>
<defs>
<clipPath id="clip0">
<rect width="24" height="24" fill="white"/>
</clipPath>
</defs>
</svg>
